<?xml version="1.0" encoding="UTF-8" standalone="no"?>
<!-- Created with Inkscape (http://www.inkscape.org/) -->

<svg
   xmlns:dc="http://purl.org/dc/elements/1.1/"
   xmlns:cc="http://creativecommons.org/ns#"
   xmlns:rdf="http://www.w3.org/1999/02/22-rdf-syntax-ns#"
   xmlns:svg="http://www.w3.org/2000/svg"
   xmlns="http://www.w3.org/2000/svg"
   xmlns:sodipodi="http://sodipodi.sourceforge.net/DTD/sodipodi-0.dtd"
   xmlns:inkscape="http://www.inkscape.org/namespaces/inkscape"
   width="7680"
   height="512"
   id="svg3997"
   version="1.1"
   inkscape:version="0.48.2 r9819"
   sodipodi:docname="Construction Saw Blad Spinning XY.svg">
  <defs
     id="defs3999" />
  <sodipodi:namedview
     id="base"
     pagecolor="#ffffff"
     bordercolor="#666666"
     borderopacity="1.0"
     inkscape:pageopacity="0.0"
     inkscape:pageshadow="2"
     inkscape:zoom="0.12766697"
     inkscape:cx="2025.4129"
     inkscape:cy="2110.3032"
     inkscape:document-units="px"
     inkscape:current-layer="g4190"
     showgrid="false"
     showguides="true"
     inkscape:guide-bbox="true"
     inkscape:window-width="1920"
     inkscape:window-height="1003"
     inkscape:window-x="-9"
     inkscape:window-y="-9"
     inkscape:window-maximized="1">
    <sodipodi:guide
       orientation="0,1"
       position="0,0"
       id="guide4005" />
    <sodipodi:guide
       orientation="0,1"
       position="0,512"
       id="guide4007" />
    <sodipodi:guide
       orientation="1,0"
       position="0,0"
       id="guide4009" />
    <sodipodi:guide
       orientation="1,0"
       position="512,0"
       id="guide4011" />
    <sodipodi:guide
       orientation="1,0"
       position="1024,0"
       id="guide4013" />
    <sodipodi:guide
       orientation="1,0"
       position="1535,0"
       id="guide4015" />
    <sodipodi:guide
       orientation="1,0"
       position="2048,1202.8571"
       id="guide4017" />
    <sodipodi:guide
       orientation="1,0"
       position="2560,0"
       id="guide4019" />
    <sodipodi:guide
       orientation="1,0"
       position="3072,0"
       id="guide4021" />
    <sodipodi:guide
       orientation="1,0"
       position="3584,0"
       id="guide4023" />
    <sodipodi:guide
       orientation="1,0"
       position="4096,0"
       id="guide4025" />
    <sodipodi:guide
       orientation="1,0"
       position="4608,0"
       id="guide4027" />
    <sodipodi:guide
       orientation="1,0"
       position="5120,0"
       id="guide4029" />
    <sodipodi:guide
       orientation="1,0"
       position="5632,0"
       id="guide4031" />
    <sodipodi:guide
       orientation="1,0"
       position="6144,0"
       id="guide4033" />
    <sodipodi:guide
       orientation="1,0"
       position="6656,0"
       id="guide4035" />
    <sodipodi:guide
       orientation="1,0"
       position="7168,2131.4286"
       id="guide4037" />
    <sodipodi:guide
       orientation="1,0"
       position="7680,0"
       id="guide4039" />
  </sodipodi:namedview>
  <metadata
     id="metadata4002">
    <rdf:RDF>
      <cc:Work
         rdf:about="">
        <dc:format>image/svg+xml</dc:format>
        <dc:type
           rdf:resource="http://purl.org/dc/dcmitype/StillImage" />
        <dc:title></dc:title>
      </cc:Work>
    </rdf:RDF>
  </metadata>
  <g
     inkscape:label="Bounding Boxes"
     inkscape:groupmode="layer"
     id="layer1"
     transform="translate(0,-540.36218)"
     sodipodi:insensitive="true">
    <rect
       style="fill:none;stroke:none"
       id="rect4041"
       width="512"
       height="512"
       x="0"
       y="0"
       transform="translate(0,540.36218)" />
    <rect
       y="540.36218"
       x="512"
       height="512"
       width="512"
       id="rect4043"
       style="fill:none;stroke:none" />
    <rect
       style="fill:none;stroke:none"
       id="rect4047"
       width="512"
       height="512"
       x="1024"
       y="540.36218" />
    <rect
       y="540.36218"
       x="1536"
       height="512"
       width="512"
       id="rect4049"
       style="fill:none;stroke:none" />
    <rect
       style="fill:none;stroke:none"
       id="rect4051"
       width="512"
       height="512"
       x="2048"
       y="540.36218" />
    <rect
       y="540.36218"
       x="2560"
       height="512"
       width="512"
       id="rect4053"
       style="fill:none;stroke:none" />
    <rect
       style="fill:none;stroke:none"
       id="rect4055"
       width="512"
       height="512"
       x="3072"
       y="540.36218" />
    <rect
       y="540.36218"
       x="3584"
       height="512"
       width="512"
       id="rect4057"
       style="fill:none;stroke:none" />
    <rect
       style="fill:none;stroke:none"
       id="rect4059"
       width="512"
       height="512"
       x="4096"
       y="540.36218" />
    <rect
       y="540.36218"
       x="4608"
       height="512"
       width="512"
       id="rect4061"
       style="fill:none;stroke:none" />
    <rect
       style="fill:none;stroke:none"
       id="rect4063"
       width="512"
       height="512"
       x="5120"
       y="540.36218" />
    <rect
       y="540.36218"
       x="5632"
       height="512"
       width="512"
       id="rect4065"
       style="fill:none;stroke:none" />
    <rect
       style="fill:none;stroke:none"
       id="rect4067"
       width="512"
       height="512"
       x="6144"
       y="540.36218" />
    <rect
       y="540.36218"
       x="6656"
       height="512"
       width="512"
       id="rect4069"
       style="fill:none;stroke:none" />
    <rect
       style="fill:none;stroke:none"
       id="rect4071"
       width="512"
       height="512"
       x="7168"
       y="540.36218" />
  </g>
  <g
     inkscape:groupmode="layer"
     id="layer2"
     inkscape:label="Frame Numbers"
     sodipodi:insensitive="true">
    <g
       id="g4086"
       transform="matrix(0.56960148,0,0,0.56960148,116.04078,-119.03593)">
      <path
         transform="translate(-34.285714,-22.857143)"
         d="m 428.57143,-253.71428 c 0,82.05373 -66.5177,148.57143 -148.57143,148.57143 -82.05373,0 -148.57143,-66.5177 -148.57143,-148.57143 0,-82.05373 66.5177,-148.57143 148.57143,-148.57143 82.05373,0 148.57143,66.5177 148.57143,148.57143 z"
         sodipodi:ry="148.57143"
         sodipodi:rx="148.57143"
         sodipodi:cy="-253.71428"
         sodipodi:cx="280"
         id="path4074"
         style="fill:#000000;fill-opacity:1;stroke:none"
         sodipodi:type="arc" />
      <text
         sodipodi:linespacing="125%"
         id="text4076"
         y="-223.16371"
         x="146.1107"
         style="font-size:164.10952759px;font-style:normal;font-variant:normal;font-weight:normal;font-stretch:normal;text-align:start;line-height:125%;letter-spacing:0px;word-spacing:0px;writing-mode:lr-tb;text-anchor:start;fill:#ffffff;fill-opacity:1;stroke:none;font-family:OCR A Extended;-inkscape-font-specification:OCR A Extended"
         xml:space="preserve"><tspan
           y="-223.16371"
           x="146.1107"
           id="tspan4078"
           sodipodi:role="line">01</tspan></text>
    </g>
    <g
       transform="matrix(0.56960148,0,0,0.56960148,628.04078,-119.03593)"
       id="g4091">
      <path
         sodipodi:type="arc"
         style="fill:#000000;fill-opacity:1;stroke:none"
         id="path4093"
         sodipodi:cx="280"
         sodipodi:cy="-253.71428"
         sodipodi:rx="148.57143"
         sodipodi:ry="148.57143"
         d="m 428.57143,-253.71428 c 0,82.05373 -66.5177,148.57143 -148.57143,148.57143 -82.05373,0 -148.57143,-66.5177 -148.57143,-148.57143 0,-82.05373 66.5177,-148.57143 148.57143,-148.57143 82.05373,0 148.57143,66.5177 148.57143,148.57143 z"
         transform="translate(-34.285714,-22.857143)" />
      <text
         xml:space="preserve"
         style="font-size:164.10952759px;font-style:normal;font-variant:normal;font-weight:normal;font-stretch:normal;text-align:start;line-height:125%;letter-spacing:0px;word-spacing:0px;writing-mode:lr-tb;text-anchor:start;fill:#ffffff;fill-opacity:1;stroke:none;font-family:OCR A Extended;-inkscape-font-specification:OCR A Extended"
         x="146.1107"
         y="-223.16371"
         id="text4095"
         sodipodi:linespacing="125%"><tspan
           sodipodi:role="line"
           id="tspan4097"
           x="146.1107"
           y="-223.16371">02</tspan></text>
    </g>
    <g
       id="g4099"
       transform="matrix(0.56960148,0,0,0.56960148,1140.0408,-119.03593)">
      <path
         transform="translate(-34.285714,-22.857143)"
         d="m 428.57143,-253.71428 c 0,82.05373 -66.5177,148.57143 -148.57143,148.57143 -82.05373,0 -148.57143,-66.5177 -148.57143,-148.57143 0,-82.05373 66.5177,-148.57143 148.57143,-148.57143 82.05373,0 148.57143,66.5177 148.57143,148.57143 z"
         sodipodi:ry="148.57143"
         sodipodi:rx="148.57143"
         sodipodi:cy="-253.71428"
         sodipodi:cx="280"
         id="path4101"
         style="fill:#000000;fill-opacity:1;stroke:none"
         sodipodi:type="arc" />
      <text
         sodipodi:linespacing="125%"
         id="text4103"
         y="-223.16371"
         x="146.1107"
         style="font-size:164.10952759px;font-style:normal;font-variant:normal;font-weight:normal;font-stretch:normal;text-align:start;line-height:125%;letter-spacing:0px;word-spacing:0px;writing-mode:lr-tb;text-anchor:start;fill:#ffffff;fill-opacity:1;stroke:none;font-family:OCR A Extended;-inkscape-font-specification:OCR A Extended"
         xml:space="preserve"><tspan
           y="-223.16371"
           x="146.1107"
           id="tspan4105"
           sodipodi:role="line">03</tspan></text>
    </g>
    <g
       transform="matrix(0.56960148,0,0,0.56960148,1652.0408,-119.03593)"
       id="g4107">
      <path
         sodipodi:type="arc"
         style="fill:#000000;fill-opacity:1;stroke:none"
         id="path4109"
         sodipodi:cx="280"
         sodipodi:cy="-253.71428"
         sodipodi:rx="148.57143"
         sodipodi:ry="148.57143"
         d="m 428.57143,-253.71428 c 0,82.05373 -66.5177,148.57143 -148.57143,148.57143 -82.05373,0 -148.57143,-66.5177 -148.57143,-148.57143 0,-82.05373 66.5177,-148.57143 148.57143,-148.57143 82.05373,0 148.57143,66.5177 148.57143,148.57143 z"
         transform="translate(-34.285714,-22.857143)" />
      <text
         xml:space="preserve"
         style="font-size:164.10952759px;font-style:normal;font-variant:normal;font-weight:normal;font-stretch:normal;text-align:start;line-height:125%;letter-spacing:0px;word-spacing:0px;writing-mode:lr-tb;text-anchor:start;fill:#ffffff;fill-opacity:1;stroke:none;font-family:OCR A Extended;-inkscape-font-specification:OCR A Extended"
         x="146.1107"
         y="-223.16371"
         id="text4111"
         sodipodi:linespacing="125%"><tspan
           sodipodi:role="line"
           id="tspan4113"
           x="146.1107"
           y="-223.16371">04</tspan></text>
    </g>
    <g
       id="g4115"
       transform="matrix(0.56960148,0,0,0.56960148,2164.0408,-119.03593)">
      <path
         transform="translate(-34.285714,-22.857143)"
         d="m 428.57143,-253.71428 c 0,82.05373 -66.5177,148.57143 -148.57143,148.57143 -82.05373,0 -148.57143,-66.5177 -148.57143,-148.57143 0,-82.05373 66.5177,-148.57143 148.57143,-148.57143 82.05373,0 148.57143,66.5177 148.57143,148.57143 z"
         sodipodi:ry="148.57143"
         sodipodi:rx="148.57143"
         sodipodi:cy="-253.71428"
         sodipodi:cx="280"
         id="path4117"
         style="fill:#000000;fill-opacity:1;stroke:none"
         sodipodi:type="arc" />
      <text
         sodipodi:linespacing="125%"
         id="text4119"
         y="-223.16371"
         x="146.1107"
         style="font-size:164.10952759px;font-style:normal;font-variant:normal;font-weight:normal;font-stretch:normal;text-align:start;line-height:125%;letter-spacing:0px;word-spacing:0px;writing-mode:lr-tb;text-anchor:start;fill:#ffffff;fill-opacity:1;stroke:none;font-family:OCR A Extended;-inkscape-font-specification:OCR A Extended"
         xml:space="preserve"><tspan
           y="-223.16371"
           x="146.1107"
           id="tspan4121"
           sodipodi:role="line">05</tspan></text>
    </g>
    <g
       transform="matrix(0.56960148,0,0,0.56960148,2676.0408,-119.03593)"
       id="g4123">
      <path
         sodipodi:type="arc"
         style="fill:#000000;fill-opacity:1;stroke:none"
         id="path4125"
         sodipodi:cx="280"
         sodipodi:cy="-253.71428"
         sodipodi:rx="148.57143"
         sodipodi:ry="148.57143"
         d="m 428.57143,-253.71428 c 0,82.05373 -66.5177,148.57143 -148.57143,148.57143 -82.05373,0 -148.57143,-66.5177 -148.57143,-148.57143 0,-82.05373 66.5177,-148.57143 148.57143,-148.57143 82.05373,0 148.57143,66.5177 148.57143,148.57143 z"
         transform="translate(-34.285714,-22.857143)" />
      <text
         xml:space="preserve"
         style="font-size:164.10952759px;font-style:normal;font-variant:normal;font-weight:normal;font-stretch:normal;text-align:start;line-height:125%;letter-spacing:0px;word-spacing:0px;writing-mode:lr-tb;text-anchor:start;fill:#ffffff;fill-opacity:1;stroke:none;font-family:OCR A Extended;-inkscape-font-specification:OCR A Extended"
         x="146.1107"
         y="-223.16371"
         id="text4127"
         sodipodi:linespacing="125%"><tspan
           sodipodi:role="line"
           id="tspan4129"
           x="146.1107"
           y="-223.16371">06</tspan></text>
    </g>
    <g
       id="g4131"
       transform="matrix(0.56960148,0,0,0.56960148,3188.0408,-119.03593)">
      <path
         transform="translate(-34.285714,-22.857143)"
         d="m 428.57143,-253.71428 c 0,82.05373 -66.5177,148.57143 -148.57143,148.57143 -82.05373,0 -148.57143,-66.5177 -148.57143,-148.57143 0,-82.05373 66.5177,-148.57143 148.57143,-148.57143 82.05373,0 148.57143,66.5177 148.57143,148.57143 z"
         sodipodi:ry="148.57143"
         sodipodi:rx="148.57143"
         sodipodi:cy="-253.71428"
         sodipodi:cx="280"
         id="path4133"
         style="fill:#000000;fill-opacity:1;stroke:none"
         sodipodi:type="arc" />
      <text
         sodipodi:linespacing="125%"
         id="text4135"
         y="-223.16371"
         x="146.1107"
         style="font-size:164.10952759px;font-style:normal;font-variant:normal;font-weight:normal;font-stretch:normal;text-align:start;line-height:125%;letter-spacing:0px;word-spacing:0px;writing-mode:lr-tb;text-anchor:start;fill:#ffffff;fill-opacity:1;stroke:none;font-family:OCR A Extended;-inkscape-font-specification:OCR A Extended"
         xml:space="preserve"><tspan
           y="-223.16371"
           x="146.1107"
           id="tspan4137"
           sodipodi:role="line">07</tspan></text>
    </g>
    <g
       transform="matrix(0.56960148,0,0,0.56960148,3700.0408,-119.03593)"
       id="g4139">
      <path
         sodipodi:type="arc"
         style="fill:#000000;fill-opacity:1;stroke:none"
         id="path4141"
         sodipodi:cx="280"
         sodipodi:cy="-253.71428"
         sodipodi:rx="148.57143"
         sodipodi:ry="148.57143"
         d="m 428.57143,-253.71428 c 0,82.05373 -66.5177,148.57143 -148.57143,148.57143 -82.05373,0 -148.57143,-66.5177 -148.57143,-148.57143 0,-82.05373 66.5177,-148.57143 148.57143,-148.57143 82.05373,0 148.57143,66.5177 148.57143,148.57143 z"
         transform="translate(-34.285714,-22.857143)" />
      <text
         xml:space="preserve"
         style="font-size:164.10952759px;font-style:normal;font-variant:normal;font-weight:normal;font-stretch:normal;text-align:start;line-height:125%;letter-spacing:0px;word-spacing:0px;writing-mode:lr-tb;text-anchor:start;fill:#ffffff;fill-opacity:1;stroke:none;font-family:OCR A Extended;-inkscape-font-specification:OCR A Extended"
         x="146.1107"
         y="-223.16371"
         id="text4143"
         sodipodi:linespacing="125%"><tspan
           sodipodi:role="line"
           id="tspan4145"
           x="146.1107"
           y="-223.16371">08</tspan></text>
    </g>
    <g
       id="g4147"
       transform="matrix(0.56960148,0,0,0.56960148,4212.0408,-119.03593)">
      <path
         transform="translate(-34.285714,-22.857143)"
         d="m 428.57143,-253.71428 c 0,82.05373 -66.5177,148.57143 -148.57143,148.57143 -82.05373,0 -148.57143,-66.5177 -148.57143,-148.57143 0,-82.05373 66.5177,-148.57143 148.57143,-148.57143 82.05373,0 148.57143,66.5177 148.57143,148.57143 z"
         sodipodi:ry="148.57143"
         sodipodi:rx="148.57143"
         sodipodi:cy="-253.71428"
         sodipodi:cx="280"
         id="path4149"
         style="fill:#000000;fill-opacity:1;stroke:none"
         sodipodi:type="arc" />
      <text
         sodipodi:linespacing="125%"
         id="text4151"
         y="-223.16371"
         x="146.1107"
         style="font-size:164.10952759px;font-style:normal;font-variant:normal;font-weight:normal;font-stretch:normal;text-align:start;line-height:125%;letter-spacing:0px;word-spacing:0px;writing-mode:lr-tb;text-anchor:start;fill:#ffffff;fill-opacity:1;stroke:none;font-family:OCR A Extended;-inkscape-font-specification:OCR A Extended"
         xml:space="preserve"><tspan
           y="-223.16371"
           x="146.1107"
           id="tspan4153"
           sodipodi:role="line">09</tspan></text>
    </g>
    <g
       transform="matrix(0.56960148,0,0,0.56960148,4724.0408,-119.03593)"
       id="g4155">
      <path
         sodipodi:type="arc"
         style="fill:#000000;fill-opacity:1;stroke:none"
         id="path4157"
         sodipodi:cx="280"
         sodipodi:cy="-253.71428"
         sodipodi:rx="148.57143"
         sodipodi:ry="148.57143"
         d="m 428.57143,-253.71428 c 0,82.05373 -66.5177,148.57143 -148.57143,148.57143 -82.05373,0 -148.57143,-66.5177 -148.57143,-148.57143 0,-82.05373 66.5177,-148.57143 148.57143,-148.57143 82.05373,0 148.57143,66.5177 148.57143,148.57143 z"
         transform="translate(-34.285714,-22.857143)" />
      <text
         xml:space="preserve"
         style="font-size:164.10952759px;font-style:normal;font-variant:normal;font-weight:normal;font-stretch:normal;text-align:start;line-height:125%;letter-spacing:0px;word-spacing:0px;writing-mode:lr-tb;text-anchor:start;fill:#ffffff;fill-opacity:1;stroke:none;font-family:OCR A Extended;-inkscape-font-specification:OCR A Extended"
         x="146.1107"
         y="-223.16371"
         id="text4159"
         sodipodi:linespacing="125%"><tspan
           sodipodi:role="line"
           id="tspan4161"
           x="146.1107"
           y="-223.16371">10</tspan></text>
    </g>
    <g
       id="g4163"
       transform="matrix(0.56960148,0,0,0.56960148,5236.0408,-119.03593)">
      <path
         transform="translate(-34.285714,-22.857143)"
         d="m 428.57143,-253.71428 c 0,82.05373 -66.5177,148.57143 -148.57143,148.57143 -82.05373,0 -148.57143,-66.5177 -148.57143,-148.57143 0,-82.05373 66.5177,-148.57143 148.57143,-148.57143 82.05373,0 148.57143,66.5177 148.57143,148.57143 z"
         sodipodi:ry="148.57143"
         sodipodi:rx="148.57143"
         sodipodi:cy="-253.71428"
         sodipodi:cx="280"
         id="path4165"
         style="fill:#000000;fill-opacity:1;stroke:none"
         sodipodi:type="arc" />
      <text
         sodipodi:linespacing="125%"
         id="text4167"
         y="-223.16371"
         x="146.1107"
         style="font-size:164.10952759px;font-style:normal;font-variant:normal;font-weight:normal;font-stretch:normal;text-align:start;line-height:125%;letter-spacing:0px;word-spacing:0px;writing-mode:lr-tb;text-anchor:start;fill:#ffffff;fill-opacity:1;stroke:none;font-family:OCR A Extended;-inkscape-font-specification:OCR A Extended"
         xml:space="preserve"><tspan
           y="-223.16371"
           x="146.1107"
           id="tspan4169"
           sodipodi:role="line">11</tspan></text>
    </g>
    <g
       transform="matrix(0.56960148,0,0,0.56960148,5748.0408,-119.03593)"
       id="g4171">
      <path
         sodipodi:type="arc"
         style="fill:#000000;fill-opacity:1;stroke:none"
         id="path4173"
         sodipodi:cx="280"
         sodipodi:cy="-253.71428"
         sodipodi:rx="148.57143"
         sodipodi:ry="148.57143"
         d="m 428.57143,-253.71428 c 0,82.05373 -66.5177,148.57143 -148.57143,148.57143 -82.05373,0 -148.57143,-66.5177 -148.57143,-148.57143 0,-82.05373 66.5177,-148.57143 148.57143,-148.57143 82.05373,0 148.57143,66.5177 148.57143,148.57143 z"
         transform="translate(-34.285714,-22.857143)" />
      <text
         xml:space="preserve"
         style="font-size:164.10952759px;font-style:normal;font-variant:normal;font-weight:normal;font-stretch:normal;text-align:start;line-height:125%;letter-spacing:0px;word-spacing:0px;writing-mode:lr-tb;text-anchor:start;fill:#ffffff;fill-opacity:1;stroke:none;font-family:OCR A Extended;-inkscape-font-specification:OCR A Extended"
         x="146.1107"
         y="-223.16371"
         id="text4175"
         sodipodi:linespacing="125%"><tspan
           sodipodi:role="line"
           id="tspan4177"
           x="146.1107"
           y="-223.16371">12</tspan></text>
    </g>
    <g
       id="g4179"
       transform="matrix(0.56960148,0,0,0.56960148,6260.0408,-119.03593)">
      <path
         transform="translate(-34.285714,-22.857143)"
         d="m 428.57143,-253.71428 c 0,82.05373 -66.5177,148.57143 -148.57143,148.57143 -82.05373,0 -148.57143,-66.5177 -148.57143,-148.57143 0,-82.05373 66.5177,-148.57143 148.57143,-148.57143 82.05373,0 148.57143,66.5177 148.57143,148.57143 z"
         sodipodi:ry="148.57143"
         sodipodi:rx="148.57143"
         sodipodi:cy="-253.71428"
         sodipodi:cx="280"
         id="path4181"
         style="fill:#000000;fill-opacity:1;stroke:none"
         sodipodi:type="arc" />
      <text
         sodipodi:linespacing="125%"
         id="text4183"
         y="-223.16371"
         x="146.1107"
         style="font-size:164.10952759px;font-style:normal;font-variant:normal;font-weight:normal;font-stretch:normal;text-align:start;line-height:125%;letter-spacing:0px;word-spacing:0px;writing-mode:lr-tb;text-anchor:start;fill:#ffffff;fill-opacity:1;stroke:none;font-family:OCR A Extended;-inkscape-font-specification:OCR A Extended"
         xml:space="preserve"><tspan
           y="-223.16371"
           x="146.1107"
           id="tspan4185"
           sodipodi:role="line">13</tspan></text>
    </g>
    <g
       transform="matrix(0.56960148,0,0,0.56960148,6772.0408,-119.03593)"
       id="g4187">
      <path
         sodipodi:type="arc"
         style="fill:#000000;fill-opacity:1;stroke:none"
         id="path4189"
         sodipodi:cx="280"
         sodipodi:cy="-253.71428"
         sodipodi:rx="148.57143"
         sodipodi:ry="148.57143"
         d="m 428.57143,-253.71428 c 0,82.05373 -66.5177,148.57143 -148.57143,148.57143 -82.05373,0 -148.57143,-66.5177 -148.57143,-148.57143 0,-82.05373 66.5177,-148.57143 148.57143,-148.57143 82.05373,0 148.57143,66.5177 148.57143,148.57143 z"
         transform="translate(-34.285714,-22.857143)" />
      <text
         xml:space="preserve"
         style="font-size:164.10952759px;font-style:normal;font-variant:normal;font-weight:normal;font-stretch:normal;text-align:start;line-height:125%;letter-spacing:0px;word-spacing:0px;writing-mode:lr-tb;text-anchor:start;fill:#ffffff;fill-opacity:1;stroke:none;font-family:OCR A Extended;-inkscape-font-specification:OCR A Extended"
         x="146.1107"
         y="-223.16371"
         id="text4191"
         sodipodi:linespacing="125%"><tspan
           sodipodi:role="line"
           id="tspan4193"
           x="146.1107"
           y="-223.16371">14</tspan></text>
    </g>
    <g
       id="g4195"
       transform="matrix(0.56960148,0,0,0.56960148,7284.0408,-119.03593)">
      <path
         transform="translate(-34.285714,-22.857143)"
         d="m 428.57143,-253.71428 c 0,82.05373 -66.5177,148.57143 -148.57143,148.57143 -82.05373,0 -148.57143,-66.5177 -148.57143,-148.57143 0,-82.05373 66.5177,-148.57143 148.57143,-148.57143 82.05373,0 148.57143,66.5177 148.57143,148.57143 z"
         sodipodi:ry="148.57143"
         sodipodi:rx="148.57143"
         sodipodi:cy="-253.71428"
         sodipodi:cx="280"
         id="path4197"
         style="fill:#000000;fill-opacity:1;stroke:none"
         sodipodi:type="arc" />
      <text
         sodipodi:linespacing="125%"
         id="text4199"
         y="-223.16371"
         x="146.1107"
         style="font-size:164.10952759px;font-style:normal;font-variant:normal;font-weight:normal;font-stretch:normal;text-align:start;line-height:125%;letter-spacing:0px;word-spacing:0px;writing-mode:lr-tb;text-anchor:start;fill:#ffffff;fill-opacity:1;stroke:none;font-family:OCR A Extended;-inkscape-font-specification:OCR A Extended"
         xml:space="preserve"><tspan
           y="-223.16371"
           x="146.1107"
           id="tspan4201"
           sodipodi:role="line">15</tspan></text>
    </g>
    <text
       xml:space="preserve"
       style="font-size:289.00238037px;font-style:normal;font-variant:normal;font-weight:normal;font-stretch:normal;text-align:start;line-height:125%;letter-spacing:0px;word-spacing:0px;writing-mode:lr-tb;text-anchor:start;fill:#000000;fill-opacity:1;stroke:none;font-family:OCR A Extended;-inkscape-font-specification:OCR A Extended"
       x="144.23016"
       y="-489.69809"
       id="text3084"
       sodipodi:linespacing="125%"><tspan
         sodipodi:role="line"
         id="tspan3086"
         x="144.23016"
         y="-489.69809">Title</tspan></text>
  </g>
  <g
     inkscape:groupmode="layer"
     id="layer3"
     inkscape:label="Frames">
    <g
       id="g3820"
       transform="translate(2.1132813e-5,5.2343751e-6)"
       inkscape:export-filename="C:\Dropbox\GameOn\Demos\Art Prep\Construction Saw Blade\SawBladeSpinningXY24_Gold_Strip.png"
       inkscape:export-xdpi="4.21875"
       inkscape:export-ydpi="4.21875">
      <path
         inkscape:connector-curvature="0"
         id="path3774"
         d="m 294.21875,32.34375 c -51.94003,12.623524 -65.2966,40.134168 -73.84375,69.5 -11.24217,2.58776 -22.03385,6.3764 -32.21875,11.21875 -25.12453,-11.96565 -27.28937,-31.351608 -10.875,-69.875 -38.6908,36.922506 -36.50484,67.46689 -29.21875,97.1875 -8.28974,7.74184 -15.74466,16.36426 -22.21875,25.71875 -27.781717,2.22418 -39.388397,-13.43991 -44.4375,-55.03125 -15.045089,51.31827 2.113498,76.65769 23.28125,98.75 -3.26444,10.70718 -5.422537,21.89945 -6.34375,33.4375 -22.951926,15.8131 -40.830869,8.02693 -66,-25.46875 12.623525,51.94003 40.13417,65.29661 69.5,73.84375 2.58776,11.24217 6.3764,22.03385 11.21875,32.21875 -11.96564,25.12453 -31.351606,27.28937 -69.875,10.875 36.922507,38.6908 67.46689,36.50484 97.1875,29.21875 7.74184,8.28974 16.36426,15.74466 25.71875,22.21875 2.22418,27.78171 -13.43991,39.38839 -55.03125,44.4375 51.31827,15.04508 76.65769,-2.1135 98.75,-23.28125 10.70718,3.26444 21.89945,5.42254 33.4375,6.34375 15.8131,22.95193 8.02692,40.83088 -25.46875,66 51.94003,-12.62353 65.29661,-40.13417 73.84375,-69.5 11.24217,-2.58776 22.03385,-6.3764 32.21875,-11.21875 25.12453,11.96564 27.28936,31.35161 10.875,69.875 38.69079,-36.9225 36.50484,-67.46689 29.21875,-97.1875 8.28974,-7.74184 15.74466,-16.36426 22.21875,-25.71875 27.78171,-2.22418 39.38839,13.43992 44.4375,55.03125 15.04508,-51.31827 -2.1135,-76.65769 -23.28125,-98.75 3.26444,-10.70718 5.42254,-21.89945 6.34375,-33.4375 22.95193,-15.8131 40.83088,-8.02692 66,25.46875 -12.62353,-51.94003 -40.13417,-65.29661 -69.5,-73.84375 -2.58776,-11.24217 -6.3764,-22.03385 -11.21875,-32.21875 11.96564,-25.12453 31.35161,-27.28936 69.875,-10.875 -25.4869,-26.70752 -47.92818,-33.97609 -69.15625,-33.5 -9.53225,0.21377 -18.81424,2.01558 -28.03125,4.28125 -7.74184,-8.28974 -16.36426,-15.74466 -25.71875,-22.21875 -2.22418,-27.781711 13.43992,-39.38839 55.03125,-44.4375 -14.17042,-4.154374 -26.34319,-5.848251 -37.03125,-5.6875 -28.01889,0.421411 -45.75359,13.61735 -61.75,28.9375 -10.69585,-3.25808 -21.88161,-5.392358 -33.40625,-6.3125 -15.8131,-22.951922 -8.02692,-40.830866 25.46875,-66 z M 256,216.65625 c 21.732,0 39.34375,17.61175 39.34375,39.34375 0,21.732 -17.61175,39.34375 -39.34375,39.34375 -21.732,0 -39.34375,-17.61175 -39.34375,-39.34375 0,-21.732 17.61175,-39.34375 39.34375,-39.34375 z"
         style="fill:#d4aa00;fill-opacity:1;stroke:#000000;stroke-width:4;stroke-miterlimit:4;stroke-dasharray:none" />
      <path
         sodipodi:nodetypes="cccc"
         inkscape:connector-curvature="0"
         id="path3818"
         d="m 256,314.54617 0,74.04519 c 144.88717,-11.46686 198.87584,-197.70774 0,-231.27694 101.67413,47.77768 106.36554,135.50267 0,157.23175 z"
         style="fill:#ffdd55;stroke:none" />
    </g>
    <rect
       style="fill:none;stroke:none"
       id="rect3824"
       width="512"
       height="512"
       x="0"
       y="0"
       inkscape:export-filename="C:\Dropbox\GameOn\Demos\Art Prep\Construction Saw Blade\SawBladeSpinningXY24_Gold_Strip.png"
       inkscape:export-xdpi="4.21875"
       inkscape:export-ydpi="4.21875" />
    <rect
       y="0"
       x="0"
       height="512"
       width="512"
       id="rect4120"
       style="fill:none;stroke:none"
       inkscape:export-filename="C:\Dropbox\GameOn\Demos\Art Prep\Construction Saw Blade\SawBladeSpinningXY24_Gold_Strip.png"
       inkscape:export-xdpi="4.21875"
       inkscape:export-ydpi="4.21875" />
    <g
       transform="matrix(0.34898906,0.70710678,-0.34898906,0.70710678,768,-106.03867)"
       id="g4130"
       inkscape:export-filename="C:\Dropbox\GameOn\Demos\Art Prep\Construction Saw Blade\SawBladeSpinningXY24_Gold_Strip.png"
       inkscape:export-xdpi="4.21875"
       inkscape:export-ydpi="4.21875">
      <path
         style="fill:#d4aa00;fill-opacity:1;stroke:#000000;stroke-width:4;stroke-miterlimit:4;stroke-dasharray:none"
         d="m 294.21875,32.34375 c -51.94003,12.623524 -65.2966,40.134168 -73.84375,69.5 -11.24217,2.58776 -22.03385,6.3764 -32.21875,11.21875 -25.12453,-11.96565 -27.28937,-31.351608 -10.875,-69.875 -38.6908,36.922506 -36.50484,67.46689 -29.21875,97.1875 -8.28974,7.74184 -15.74466,16.36426 -22.21875,25.71875 -27.781717,2.22418 -39.388397,-13.43991 -44.4375,-55.03125 -15.045089,51.31827 2.113498,76.65769 23.28125,98.75 -3.26444,10.70718 -5.422537,21.89945 -6.34375,33.4375 -22.951926,15.8131 -40.830869,8.02693 -66,-25.46875 12.623525,51.94003 40.13417,65.29661 69.5,73.84375 2.58776,11.24217 6.3764,22.03385 11.21875,32.21875 -11.96564,25.12453 -31.351606,27.28937 -69.875,10.875 36.922507,38.6908 67.46689,36.50484 97.1875,29.21875 7.74184,8.28974 16.36426,15.74466 25.71875,22.21875 2.22418,27.78171 -13.43991,39.38839 -55.03125,44.4375 51.31827,15.04508 76.65769,-2.1135 98.75,-23.28125 10.70718,3.26444 21.89945,5.42254 33.4375,6.34375 15.8131,22.95193 8.02692,40.83088 -25.46875,66 51.94003,-12.62353 65.29661,-40.13417 73.84375,-69.5 11.24217,-2.58776 22.03385,-6.3764 32.21875,-11.21875 25.12453,11.96564 27.28936,31.35161 10.875,69.875 38.69079,-36.9225 36.50484,-67.46689 29.21875,-97.1875 8.28974,-7.74184 15.74466,-16.36426 22.21875,-25.71875 27.78171,-2.22418 39.38839,13.43992 44.4375,55.03125 15.04508,-51.31827 -2.1135,-76.65769 -23.28125,-98.75 3.26444,-10.70718 5.42254,-21.89945 6.34375,-33.4375 22.95193,-15.8131 40.83088,-8.02692 66,25.46875 -12.62353,-51.94003 -40.13417,-65.29661 -69.5,-73.84375 -2.58776,-11.24217 -6.3764,-22.03385 -11.21875,-32.21875 11.96564,-25.12453 31.35161,-27.28936 69.875,-10.875 -25.4869,-26.70752 -47.92818,-33.97609 -69.15625,-33.5 -9.53225,0.21377 -18.81424,2.01558 -28.03125,4.28125 -7.74184,-8.28974 -16.36426,-15.74466 -25.71875,-22.21875 -2.22418,-27.781711 13.43992,-39.38839 55.03125,-44.4375 -14.17042,-4.154374 -26.34319,-5.848251 -37.03125,-5.6875 -28.01889,0.421411 -45.75359,13.61735 -61.75,28.9375 -10.69585,-3.25808 -21.88161,-5.392358 -33.40625,-6.3125 -15.8131,-22.951922 -8.02692,-40.830866 25.46875,-66 z M 256,216.65625 c 21.732,0 39.34375,17.61175 39.34375,39.34375 0,21.732 -17.61175,39.34375 -39.34375,39.34375 -21.732,0 -39.34375,-17.61175 -39.34375,-39.34375 0,-21.732 17.61175,-39.34375 39.34375,-39.34375 z"
         id="path4132"
         inkscape:connector-curvature="0" />
      <path
         style="fill:#ffdd55;stroke:none;fill-opacity:1"
         d="m 256,314.54617 0,74.04519 c 144.88717,-11.46686 198.87584,-197.70774 0,-231.27694 101.67413,47.77768 106.36554,135.50267 0,157.23175 z"
         id="path4134"
         inkscape:connector-curvature="0"
         sodipodi:nodetypes="cccc" />
    </g>
    <rect
       y="0"
       x="512"
       height="512"
       width="512"
       id="rect4136"
       style="fill:none;stroke:none"
       inkscape:export-filename="C:\Dropbox\GameOn\Demos\Art Prep\Construction Saw Blade\SawBladeSpinningXY24_Gold_Strip.png"
       inkscape:export-xdpi="4.21875"
       inkscape:export-ydpi="4.21875" />
    <rect
       style="fill:none;stroke:none"
       id="rect4138"
       width="512"
       height="512"
       x="512"
       y="0"
       inkscape:export-filename="C:\Dropbox\GameOn\Demos\Art Prep\Construction Saw Blade\SawBladeSpinningXY24_Gold_Strip.png"
       inkscape:export-xdpi="4.21875"
       inkscape:export-ydpi="4.21875" />
    <g
       id="g4140"
       transform="matrix(0,1,-0.16153078,0,1321.3519,1.7895761e-6)"
       inkscape:export-filename="C:\Dropbox\GameOn\Demos\Art Prep\Construction Saw Blade\SawBladeSpinningXY24_Gold_Strip.png"
       inkscape:export-xdpi="4.21875"
       inkscape:export-ydpi="4.21875">
      <path
         inkscape:connector-curvature="0"
         id="path4142"
         d="m 294.21875,32.34375 c -51.94003,12.623524 -65.2966,40.134168 -73.84375,69.5 -11.24217,2.58776 -22.03385,6.3764 -32.21875,11.21875 -25.12453,-11.96565 -27.28937,-31.351608 -10.875,-69.875 -38.6908,36.922506 -36.50484,67.46689 -29.21875,97.1875 -8.28974,7.74184 -15.74466,16.36426 -22.21875,25.71875 -27.781717,2.22418 -39.388397,-13.43991 -44.4375,-55.03125 -15.045089,51.31827 2.113498,76.65769 23.28125,98.75 -3.26444,10.70718 -5.422537,21.89945 -6.34375,33.4375 -22.951926,15.8131 -40.830869,8.02693 -66,-25.46875 12.623525,51.94003 40.13417,65.29661 69.5,73.84375 2.58776,11.24217 6.3764,22.03385 11.21875,32.21875 -11.96564,25.12453 -31.351606,27.28937 -69.875,10.875 36.922507,38.6908 67.46689,36.50484 97.1875,29.21875 7.74184,8.28974 16.36426,15.74466 25.71875,22.21875 2.22418,27.78171 -13.43991,39.38839 -55.03125,44.4375 51.31827,15.04508 76.65769,-2.1135 98.75,-23.28125 10.70718,3.26444 21.89945,5.42254 33.4375,6.34375 15.8131,22.95193 8.02692,40.83088 -25.46875,66 51.94003,-12.62353 65.29661,-40.13417 73.84375,-69.5 11.24217,-2.58776 22.03385,-6.3764 32.21875,-11.21875 25.12453,11.96564 27.28936,31.35161 10.875,69.875 38.69079,-36.9225 36.50484,-67.46689 29.21875,-97.1875 8.28974,-7.74184 15.74466,-16.36426 22.21875,-25.71875 27.78171,-2.22418 39.38839,13.43992 44.4375,55.03125 15.04508,-51.31827 -2.1135,-76.65769 -23.28125,-98.75 3.26444,-10.70718 5.42254,-21.89945 6.34375,-33.4375 22.95193,-15.8131 40.83088,-8.02692 66,25.46875 -12.62353,-51.94003 -40.13417,-65.29661 -69.5,-73.84375 -2.58776,-11.24217 -6.3764,-22.03385 -11.21875,-32.21875 11.96564,-25.12453 31.35161,-27.28936 69.875,-10.875 -25.4869,-26.70752 -47.92818,-33.97609 -69.15625,-33.5 -9.53225,0.21377 -18.81424,2.01558 -28.03125,4.28125 -7.74184,-8.28974 -16.36426,-15.74466 -25.71875,-22.21875 -2.22418,-27.781711 13.43992,-39.38839 55.03125,-44.4375 -14.17042,-4.154374 -26.34319,-5.848251 -37.03125,-5.6875 -28.01889,0.421411 -45.75359,13.61735 -61.75,28.9375 -10.69585,-3.25808 -21.88161,-5.392358 -33.40625,-6.3125 -15.8131,-22.951922 -8.02692,-40.830866 25.46875,-66 z M 256,216.65625 c 21.732,0 39.34375,17.61175 39.34375,39.34375 0,21.732 -17.61175,39.34375 -39.34375,39.34375 -21.732,0 -39.34375,-17.61175 -39.34375,-39.34375 0,-21.732 17.61175,-39.34375 39.34375,-39.34375 z"
         style="fill:#d4aa00;fill-opacity:1;stroke:#000000;stroke-width:4;stroke-miterlimit:4;stroke-dasharray:none" />
      <path
         sodipodi:nodetypes="cccc"
         inkscape:connector-curvature="0"
         id="path4144"
         d="m 256,314.54617 0,74.04519 c 144.88717,-11.46686 198.87584,-197.70774 0,-231.27694 101.67413,47.77768 106.36554,135.50267 0,157.23175 z"
         style="fill:#ffdd55;stroke:none;fill-opacity:1" />
    </g>
    <rect
       style="fill:none;stroke:none"
       id="rect4146"
       width="512"
       height="512"
       x="1024"
       y="0"
       inkscape:export-filename="C:\Dropbox\GameOn\Demos\Art Prep\Construction Saw Blade\SawBladeSpinningXY24_Gold_Strip.png"
       inkscape:export-xdpi="4.21875"
       inkscape:export-ydpi="4.21875" />
    <rect
       y="0"
       x="1024"
       height="512"
       width="512"
       id="rect4148"
       style="fill:none;stroke:none"
       inkscape:export-filename="C:\Dropbox\GameOn\Demos\Art Prep\Construction Saw Blade\SawBladeSpinningXY24_Gold_Strip.png"
       inkscape:export-xdpi="4.21875"
       inkscape:export-ydpi="4.21875" />
    <g
       transform="matrix(0.34898906,0.70710678,0.34898906,-0.70710678,1613.3176,256)"
       id="g4150"
       inkscape:export-filename="C:\Dropbox\GameOn\Demos\Art Prep\Construction Saw Blade\SawBladeSpinningXY24_Gold_Strip.png"
       inkscape:export-xdpi="4.21875"
       inkscape:export-ydpi="4.21875">
      <path
         style="fill:#d4aa00;fill-opacity:1;stroke:#000000;stroke-width:4;stroke-miterlimit:4;stroke-dasharray:none"
         d="m 294.21875,32.34375 c -51.94003,12.623524 -65.2966,40.134168 -73.84375,69.5 -11.24217,2.58776 -22.03385,6.3764 -32.21875,11.21875 -25.12453,-11.96565 -27.28937,-31.351608 -10.875,-69.875 -38.6908,36.922506 -36.50484,67.46689 -29.21875,97.1875 -8.28974,7.74184 -15.74466,16.36426 -22.21875,25.71875 -27.781717,2.22418 -39.388397,-13.43991 -44.4375,-55.03125 -15.045089,51.31827 2.113498,76.65769 23.28125,98.75 -3.26444,10.70718 -5.422537,21.89945 -6.34375,33.4375 -22.951926,15.8131 -40.830869,8.02693 -66,-25.46875 12.623525,51.94003 40.13417,65.29661 69.5,73.84375 2.58776,11.24217 6.3764,22.03385 11.21875,32.21875 -11.96564,25.12453 -31.351606,27.28937 -69.875,10.875 36.922507,38.6908 67.46689,36.50484 97.1875,29.21875 7.74184,8.28974 16.36426,15.74466 25.71875,22.21875 2.22418,27.78171 -13.43991,39.38839 -55.03125,44.4375 51.31827,15.04508 76.65769,-2.1135 98.75,-23.28125 10.70718,3.26444 21.89945,5.42254 33.4375,6.34375 15.8131,22.95193 8.02692,40.83088 -25.46875,66 51.94003,-12.62353 65.29661,-40.13417 73.84375,-69.5 11.24217,-2.58776 22.03385,-6.3764 32.21875,-11.21875 25.12453,11.96564 27.28936,31.35161 10.875,69.875 38.69079,-36.9225 36.50484,-67.46689 29.21875,-97.1875 8.28974,-7.74184 15.74466,-16.36426 22.21875,-25.71875 27.78171,-2.22418 39.38839,13.43992 44.4375,55.03125 15.04508,-51.31827 -2.1135,-76.65769 -23.28125,-98.75 3.26444,-10.70718 5.42254,-21.89945 6.34375,-33.4375 22.95193,-15.8131 40.83088,-8.02692 66,25.46875 -12.62353,-51.94003 -40.13417,-65.29661 -69.5,-73.84375 -2.58776,-11.24217 -6.3764,-22.03385 -11.21875,-32.21875 11.96564,-25.12453 31.35161,-27.28936 69.875,-10.875 -25.4869,-26.70752 -47.92818,-33.97609 -69.15625,-33.5 -9.53225,0.21377 -18.81424,2.01558 -28.03125,4.28125 -7.74184,-8.28974 -16.36426,-15.74466 -25.71875,-22.21875 -2.22418,-27.781711 13.43992,-39.38839 55.03125,-44.4375 -14.17042,-4.154374 -26.34319,-5.848251 -37.03125,-5.6875 -28.01889,0.421411 -45.75359,13.61735 -61.75,28.9375 -10.69585,-3.25808 -21.88161,-5.392358 -33.40625,-6.3125 -15.8131,-22.951922 -8.02692,-40.830866 25.46875,-66 z M 256,216.65625 c 21.732,0 39.34375,17.61175 39.34375,39.34375 0,21.732 -17.61175,39.34375 -39.34375,39.34375 -21.732,0 -39.34375,-17.61175 -39.34375,-39.34375 0,-21.732 17.61175,-39.34375 39.34375,-39.34375 z"
         id="path4152"
         inkscape:connector-curvature="0" />
      <path
         style="fill:#ffdd55;stroke:none;fill-opacity:1"
         d="m 256,314.54617 0,74.04519 c 144.88717,-11.46686 198.87584,-197.70774 0,-231.27694 101.67413,47.77768 106.36554,135.50267 0,157.23175 z"
         id="path4154"
         inkscape:connector-curvature="0"
         sodipodi:nodetypes="cccc" />
    </g>
    <rect
       y="0"
       x="-2048"
       height="512"
       width="512"
       id="rect4156"
       style="fill:none;stroke:none"
       inkscape:export-filename="C:\Dropbox\GameOn\Demos\Art Prep\Construction Saw Blade\SawBladeSpinningXY24_Gold_Strip.png"
       inkscape:export-xdpi="4.21875"
       inkscape:export-ydpi="4.21875"
       transform="scale(-1,1)" />
    <rect
       style="fill:none;stroke:none"
       id="rect4158"
       width="512"
       height="512"
       x="-2048"
       y="0"
       inkscape:export-filename="C:\Dropbox\GameOn\Demos\Art Prep\Construction Saw Blade\SawBladeSpinningXY24_Gold_Strip.png"
       inkscape:export-xdpi="4.21875"
       inkscape:export-ydpi="4.21875"
       transform="scale(-1,1)" />
    <g
       id="g4160"
       transform="matrix(1,0,0,-1,2048,512)"
       inkscape:export-filename="C:\Dropbox\GameOn\Demos\Art Prep\Construction Saw Blade\SawBladeSpinningXY24_Gold_Strip.png"
       inkscape:export-xdpi="4.21875"
       inkscape:export-ydpi="4.21875">
      <path
         inkscape:connector-curvature="0"
         id="path4162"
         d="m 294.21875,32.34375 c -51.94003,12.623524 -65.2966,40.134168 -73.84375,69.5 -11.24217,2.58776 -22.03385,6.3764 -32.21875,11.21875 -25.12453,-11.96565 -27.28937,-31.351608 -10.875,-69.875 -38.6908,36.922506 -36.50484,67.46689 -29.21875,97.1875 -8.28974,7.74184 -15.74466,16.36426 -22.21875,25.71875 -27.781717,2.22418 -39.388397,-13.43991 -44.4375,-55.03125 -15.045089,51.31827 2.113498,76.65769 23.28125,98.75 -3.26444,10.70718 -5.422537,21.89945 -6.34375,33.4375 -22.951926,15.8131 -40.830869,8.02693 -66,-25.46875 12.623525,51.94003 40.13417,65.29661 69.5,73.84375 2.58776,11.24217 6.3764,22.03385 11.21875,32.21875 -11.96564,25.12453 -31.351606,27.28937 -69.875,10.875 36.922507,38.6908 67.46689,36.50484 97.1875,29.21875 7.74184,8.28974 16.36426,15.74466 25.71875,22.21875 2.22418,27.78171 -13.43991,39.38839 -55.03125,44.4375 51.31827,15.04508 76.65769,-2.1135 98.75,-23.28125 10.70718,3.26444 21.89945,5.42254 33.4375,6.34375 15.8131,22.95193 8.02692,40.83088 -25.46875,66 51.94003,-12.62353 65.29661,-40.13417 73.84375,-69.5 11.24217,-2.58776 22.03385,-6.3764 32.21875,-11.21875 25.12453,11.96564 27.28936,31.35161 10.875,69.875 38.69079,-36.9225 36.50484,-67.46689 29.21875,-97.1875 8.28974,-7.74184 15.74466,-16.36426 22.21875,-25.71875 27.78171,-2.22418 39.38839,13.43992 44.4375,55.03125 15.04508,-51.31827 -2.1135,-76.65769 -23.28125,-98.75 3.26444,-10.70718 5.42254,-21.89945 6.34375,-33.4375 22.95193,-15.8131 40.83088,-8.02692 66,25.46875 -12.62353,-51.94003 -40.13417,-65.29661 -69.5,-73.84375 -2.58776,-11.24217 -6.3764,-22.03385 -11.21875,-32.21875 11.96564,-25.12453 31.35161,-27.28936 69.875,-10.875 -25.4869,-26.70752 -47.92818,-33.97609 -69.15625,-33.5 -9.53225,0.21377 -18.81424,2.01558 -28.03125,4.28125 -7.74184,-8.28974 -16.36426,-15.74466 -25.71875,-22.21875 -2.22418,-27.781711 13.43992,-39.38839 55.03125,-44.4375 -14.17042,-4.154374 -26.34319,-5.848251 -37.03125,-5.6875 -28.01889,0.421411 -45.75359,13.61735 -61.75,28.9375 -10.69585,-3.25808 -21.88161,-5.392358 -33.40625,-6.3125 -15.8131,-22.951922 -8.02692,-40.830866 25.46875,-66 z M 256,216.65625 c 21.732,0 39.34375,17.61175 39.34375,39.34375 0,21.732 -17.61175,39.34375 -39.34375,39.34375 -21.732,0 -39.34375,-17.61175 -39.34375,-39.34375 0,-21.732 17.61175,-39.34375 39.34375,-39.34375 z"
         style="fill:#d4aa00;fill-opacity:1;stroke:#000000;stroke-width:4;stroke-miterlimit:4;stroke-dasharray:none" />
      <path
         sodipodi:nodetypes="cccc"
         inkscape:connector-curvature="0"
         id="path4164"
         d="m 256,314.54617 0,74.04519 c 144.88717,-11.46686 198.87584,-197.70774 0,-231.27694 101.67413,47.77768 106.36554,135.50267 0,157.23175 z"
         style="fill:#ffdd55;stroke:none;fill-opacity:1" />
    </g>
    <rect
       style="fill:none;stroke:none"
       id="rect4166"
       width="512"
       height="512"
       x="2048"
       y="0"
       inkscape:export-filename="C:\Dropbox\GameOn\Demos\Art Prep\Construction Saw Blade\SawBladeSpinningXY24_Gold_Strip.png"
       inkscape:export-xdpi="4.21875"
       inkscape:export-ydpi="4.21875" />
    <rect
       y="0"
       x="2048"
       height="512"
       width="512"
       id="rect4168"
       style="fill:none;stroke:none"
       inkscape:export-filename="C:\Dropbox\GameOn\Demos\Art Prep\Construction Saw Blade\SawBladeSpinningXY24_Gold_Strip.png"
       inkscape:export-xdpi="4.21875"
       inkscape:export-ydpi="4.21875" />
    <g
       transform="matrix(0.34898906,-0.70710678,-0.34898906,-0.70710678,2816,618.03867)"
       id="g4170"
       inkscape:export-filename="C:\Dropbox\GameOn\Demos\Art Prep\Construction Saw Blade\SawBladeSpinningXY24_Gold_Strip.png"
       inkscape:export-xdpi="4.21875"
       inkscape:export-ydpi="4.21875">
      <path
         style="fill:#d4aa00;fill-opacity:1;stroke:#000000;stroke-width:4;stroke-miterlimit:4;stroke-dasharray:none"
         d="m 294.21875,32.34375 c -51.94003,12.623524 -65.2966,40.134168 -73.84375,69.5 -11.24217,2.58776 -22.03385,6.3764 -32.21875,11.21875 -25.12453,-11.96565 -27.28937,-31.351608 -10.875,-69.875 -38.6908,36.922506 -36.50484,67.46689 -29.21875,97.1875 -8.28974,7.74184 -15.74466,16.36426 -22.21875,25.71875 -27.781717,2.22418 -39.388397,-13.43991 -44.4375,-55.03125 -15.045089,51.31827 2.113498,76.65769 23.28125,98.75 -3.26444,10.70718 -5.422537,21.89945 -6.34375,33.4375 -22.951926,15.8131 -40.830869,8.02693 -66,-25.46875 12.623525,51.94003 40.13417,65.29661 69.5,73.84375 2.58776,11.24217 6.3764,22.03385 11.21875,32.21875 -11.96564,25.12453 -31.351606,27.28937 -69.875,10.875 36.922507,38.6908 67.46689,36.50484 97.1875,29.21875 7.74184,8.28974 16.36426,15.74466 25.71875,22.21875 2.22418,27.78171 -13.43991,39.38839 -55.03125,44.4375 51.31827,15.04508 76.65769,-2.1135 98.75,-23.28125 10.70718,3.26444 21.89945,5.42254 33.4375,6.34375 15.8131,22.95193 8.02692,40.83088 -25.46875,66 51.94003,-12.62353 65.29661,-40.13417 73.84375,-69.5 11.24217,-2.58776 22.03385,-6.3764 32.21875,-11.21875 25.12453,11.96564 27.28936,31.35161 10.875,69.875 38.69079,-36.9225 36.50484,-67.46689 29.21875,-97.1875 8.28974,-7.74184 15.74466,-16.36426 22.21875,-25.71875 27.78171,-2.22418 39.38839,13.43992 44.4375,55.03125 15.04508,-51.31827 -2.1135,-76.65769 -23.28125,-98.75 3.26444,-10.70718 5.42254,-21.89945 6.34375,-33.4375 22.95193,-15.8131 40.83088,-8.02692 66,25.46875 -12.62353,-51.94003 -40.13417,-65.29661 -69.5,-73.84375 -2.58776,-11.24217 -6.3764,-22.03385 -11.21875,-32.21875 11.96564,-25.12453 31.35161,-27.28936 69.875,-10.875 -25.4869,-26.70752 -47.92818,-33.97609 -69.15625,-33.5 -9.53225,0.21377 -18.81424,2.01558 -28.03125,4.28125 -7.74184,-8.28974 -16.36426,-15.74466 -25.71875,-22.21875 -2.22418,-27.781711 13.43992,-39.38839 55.03125,-44.4375 -14.17042,-4.154374 -26.34319,-5.848251 -37.03125,-5.6875 -28.01889,0.421411 -45.75359,13.61735 -61.75,28.9375 -10.69585,-3.25808 -21.88161,-5.392358 -33.40625,-6.3125 -15.8131,-22.951922 -8.02692,-40.830866 25.46875,-66 z M 256,216.65625 c 21.732,0 39.34375,17.61175 39.34375,39.34375 0,21.732 -17.61175,39.34375 -39.34375,39.34375 -21.732,0 -39.34375,-17.61175 -39.34375,-39.34375 0,-21.732 17.61175,-39.34375 39.34375,-39.34375 z"
         id="path4172"
         inkscape:connector-curvature="0" />
      <path
         style="fill:#ffdd55;stroke:none;fill-opacity:1"
         d="m 256,314.54617 0,74.04519 c 144.88717,-11.46686 198.87584,-197.70774 0,-231.27694 101.67413,47.77768 106.36554,135.50267 0,157.23175 z"
         id="path4174"
         inkscape:connector-curvature="0"
         sodipodi:nodetypes="cccc" />
    </g>
    <rect
       y="0"
       x="2560"
       height="512"
       width="512"
       id="rect4176"
       style="fill:none;stroke:none"
       inkscape:export-filename="C:\Dropbox\GameOn\Demos\Art Prep\Construction Saw Blade\SawBladeSpinningXY24_Gold_Strip.png"
       inkscape:export-xdpi="4.21875"
       inkscape:export-ydpi="4.21875" />
    <rect
       style="fill:none;stroke:none"
       id="rect4178"
       width="512"
       height="512"
       x="2560"
       y="0"
       inkscape:export-filename="C:\Dropbox\GameOn\Demos\Art Prep\Construction Saw Blade\SawBladeSpinningXY24_Gold_Strip.png"
       inkscape:export-xdpi="4.21875"
       inkscape:export-ydpi="4.21875" />
    <g
       id="g4180"
       transform="matrix(0,-1,-0.16153078,0,3369.3519,512)"
       inkscape:export-filename="C:\Dropbox\GameOn\Demos\Art Prep\Construction Saw Blade\SawBladeSpinningXY24_Gold_Strip.png"
       inkscape:export-xdpi="4.21875"
       inkscape:export-ydpi="4.21875">
      <path
         inkscape:connector-curvature="0"
         id="path4182"
         d="m 294.21875,32.34375 c -51.94003,12.623524 -65.2966,40.134168 -73.84375,69.5 -11.24217,2.58776 -22.03385,6.3764 -32.21875,11.21875 -25.12453,-11.96565 -27.28937,-31.351608 -10.875,-69.875 -38.6908,36.922506 -36.50484,67.46689 -29.21875,97.1875 -8.28974,7.74184 -15.74466,16.36426 -22.21875,25.71875 -27.781717,2.22418 -39.388397,-13.43991 -44.4375,-55.03125 -15.045089,51.31827 2.113498,76.65769 23.28125,98.75 -3.26444,10.70718 -5.422537,21.89945 -6.34375,33.4375 -22.951926,15.8131 -40.830869,8.02693 -66,-25.46875 12.623525,51.94003 40.13417,65.29661 69.5,73.84375 2.58776,11.24217 6.3764,22.03385 11.21875,32.21875 -11.96564,25.12453 -31.351606,27.28937 -69.875,10.875 36.922507,38.6908 67.46689,36.50484 97.1875,29.21875 7.74184,8.28974 16.36426,15.74466 25.71875,22.21875 2.22418,27.78171 -13.43991,39.38839 -55.03125,44.4375 51.31827,15.04508 76.65769,-2.1135 98.75,-23.28125 10.70718,3.26444 21.89945,5.42254 33.4375,6.34375 15.8131,22.95193 8.02692,40.83088 -25.46875,66 51.94003,-12.62353 65.29661,-40.13417 73.84375,-69.5 11.24217,-2.58776 22.03385,-6.3764 32.21875,-11.21875 25.12453,11.96564 27.28936,31.35161 10.875,69.875 38.69079,-36.9225 36.50484,-67.46689 29.21875,-97.1875 8.28974,-7.74184 15.74466,-16.36426 22.21875,-25.71875 27.78171,-2.22418 39.38839,13.43992 44.4375,55.03125 15.04508,-51.31827 -2.1135,-76.65769 -23.28125,-98.75 3.26444,-10.70718 5.42254,-21.89945 6.34375,-33.4375 22.95193,-15.8131 40.83088,-8.02692 66,25.46875 -12.62353,-51.94003 -40.13417,-65.29661 -69.5,-73.84375 -2.58776,-11.24217 -6.3764,-22.03385 -11.21875,-32.21875 11.96564,-25.12453 31.35161,-27.28936 69.875,-10.875 -25.4869,-26.70752 -47.92818,-33.97609 -69.15625,-33.5 -9.53225,0.21377 -18.81424,2.01558 -28.03125,4.28125 -7.74184,-8.28974 -16.36426,-15.74466 -25.71875,-22.21875 -2.22418,-27.781711 13.43992,-39.38839 55.03125,-44.4375 -14.17042,-4.154374 -26.34319,-5.848251 -37.03125,-5.6875 -28.01889,0.421411 -45.75359,13.61735 -61.75,28.9375 -10.69585,-3.25808 -21.88161,-5.392358 -33.40625,-6.3125 -15.8131,-22.951922 -8.02692,-40.830866 25.46875,-66 z M 256,216.65625 c 21.732,0 39.34375,17.61175 39.34375,39.34375 0,21.732 -17.61175,39.34375 -39.34375,39.34375 -21.732,0 -39.34375,-17.61175 -39.34375,-39.34375 0,-21.732 17.61175,-39.34375 39.34375,-39.34375 z"
         style="fill:#d4aa00;fill-opacity:1;stroke:#000000;stroke-width:4;stroke-miterlimit:4;stroke-dasharray:none" />
      <path
         sodipodi:nodetypes="cccc"
         inkscape:connector-curvature="0"
         id="path4184"
         d="m 256,314.54617 0,74.04519 c 144.88717,-11.46686 198.87584,-197.70774 0,-231.27694 101.67413,47.77768 106.36554,135.50267 0,157.23175 z"
         style="fill:#ffdd55;stroke:none;fill-opacity:1" />
    </g>
    <rect
       style="fill:none;stroke:none"
       id="rect4186"
       width="512"
       height="512"
       x="-3584"
       y="0"
       inkscape:export-filename="C:\Dropbox\GameOn\Demos\Art Prep\Construction Saw Blade\SawBladeSpinningXY24_Gold_Strip.png"
       inkscape:export-xdpi="4.21875"
       inkscape:export-ydpi="4.21875"
       transform="scale(-1,1)" />
    <rect
       y="0"
       x="-3584"
       height="512"
       width="512"
       id="rect4188"
       style="fill:none;stroke:none"
       inkscape:export-filename="C:\Dropbox\GameOn\Demos\Art Prep\Construction Saw Blade\SawBladeSpinningXY24_Gold_Strip.png"
       inkscape:export-xdpi="4.21875"
       inkscape:export-ydpi="4.21875"
       transform="scale(-1,1)" />
    <g
       transform="matrix(0.34898906,-0.70710678,0.34898906,0.70710678,3661.3176,256)"
       id="g4190"
       inkscape:export-filename="C:\Dropbox\GameOn\Demos\Art Prep\Construction Saw Blade\SawBladeSpinningXY24_Strip.png"
       inkscape:export-xdpi="4.21875"
       inkscape:export-ydpi="4.21875">
      <path
         style="fill:#d4aa00;fill-opacity:1;stroke:#000000;stroke-width:4;stroke-miterlimit:4;stroke-dasharray:none"
         d="m 294.21875,32.34375 c -51.94003,12.623524 -65.2966,40.134168 -73.84375,69.5 -11.24217,2.58776 -22.03385,6.3764 -32.21875,11.21875 -25.12453,-11.96565 -27.28937,-31.351608 -10.875,-69.875 -38.6908,36.922506 -36.50484,67.46689 -29.21875,97.1875 -8.28974,7.74184 -15.74466,16.36426 -22.21875,25.71875 -27.781717,2.22418 -39.388397,-13.43991 -44.4375,-55.03125 -15.045089,51.31827 2.113498,76.65769 23.28125,98.75 -3.26444,10.70718 -5.422537,21.89945 -6.34375,33.4375 -22.951926,15.8131 -40.830869,8.02693 -66,-25.46875 12.623525,51.94003 40.13417,65.29661 69.5,73.84375 2.58776,11.24217 6.3764,22.03385 11.21875,32.21875 -11.96564,25.12453 -31.351606,27.28937 -69.875,10.875 36.922507,38.6908 67.46689,36.50484 97.1875,29.21875 7.74184,8.28974 16.36426,15.74466 25.71875,22.21875 2.22418,27.78171 -13.43991,39.38839 -55.03125,44.4375 51.31827,15.04508 76.65769,-2.1135 98.75,-23.28125 10.70718,3.26444 21.89945,5.42254 33.4375,6.34375 15.8131,22.95193 8.02692,40.83088 -25.46875,66 51.94003,-12.62353 65.29661,-40.13417 73.84375,-69.5 11.24217,-2.58776 22.03385,-6.3764 32.21875,-11.21875 25.12453,11.96564 27.28936,31.35161 10.875,69.875 38.69079,-36.9225 36.50484,-67.46689 29.21875,-97.1875 8.28974,-7.74184 15.74466,-16.36426 22.21875,-25.71875 27.78171,-2.22418 39.38839,13.43992 44.4375,55.03125 15.04508,-51.31827 -2.1135,-76.65769 -23.28125,-98.75 3.26444,-10.70718 5.42254,-21.89945 6.34375,-33.4375 22.95193,-15.8131 40.83088,-8.02692 66,25.46875 -12.62353,-51.94003 -40.13417,-65.29661 -69.5,-73.84375 -2.58776,-11.24217 -6.3764,-22.03385 -11.21875,-32.21875 11.96564,-25.12453 31.35161,-27.28936 69.875,-10.875 -25.4869,-26.70752 -47.92818,-33.97609 -69.15625,-33.5 -9.53225,0.21377 -18.81424,2.01558 -28.03125,4.28125 -7.74184,-8.28974 -16.36426,-15.74466 -25.71875,-22.21875 -2.22418,-27.781711 13.43992,-39.38839 55.03125,-44.4375 -14.17042,-4.154374 -26.34319,-5.848251 -37.03125,-5.6875 -28.01889,0.421411 -45.75359,13.61735 -61.75,28.9375 -10.69585,-3.25808 -21.88161,-5.392358 -33.40625,-6.3125 -15.8131,-22.951922 -8.02692,-40.830866 25.46875,-66 z M 256,216.65625 c 21.732,0 39.34375,17.61175 39.34375,39.34375 0,21.732 -17.61175,39.34375 -39.34375,39.34375 -21.732,0 -39.34375,-17.61175 -39.34375,-39.34375 0,-21.732 17.61175,-39.34375 39.34375,-39.34375 z"
         id="path4192"
         inkscape:connector-curvature="0"
         inkscape:export-filename="C:\Dropbox\GameOn\Demos\Art Prep\Construction Saw Blade\SawBladeSpinningXY24_Gold_Strip.png"
         inkscape:export-xdpi="4.21875"
         inkscape:export-ydpi="4.21875" />
      <path
         style="fill:#ffdd55;stroke:none;fill-opacity:1"
         d="m 256,314.54617 0,74.04519 c 144.88717,-11.46686 198.87584,-197.70774 0,-231.27694 101.67413,47.77768 106.36554,135.50267 0,157.23175 z"
         id="path4194"
         inkscape:connector-curvature="0"
         sodipodi:nodetypes="cccc"
         inkscape:export-filename="C:\Dropbox\GameOn\Demos\Art Prep\Construction Saw Blade\SawBladeSpinningXY24_Gold_Strip.png"
         inkscape:export-xdpi="4.21875"
         inkscape:export-ydpi="4.21875" />
    </g>
    <rect
       y="0"
       x="3584"
       height="512"
       width="512"
       id="rect4196"
       style="fill:none;stroke:none"
       inkscape:export-filename="C:\Dropbox\GameOn\Demos\Art Prep\Construction Saw Blade\SawBladeSpinningXY24_Gold_Strip.png"
       inkscape:export-xdpi="4.21875"
       inkscape:export-ydpi="4.21875" />
    <rect
       style="fill:none;stroke:none"
       id="rect4198"
       width="512"
       height="512"
       x="3584"
       y="0"
       inkscape:export-filename="C:\Dropbox\GameOn\Demos\Art Prep\Construction Saw Blade\SawBladeSpinningXY24_Gold_Strip.png"
       inkscape:export-xdpi="4.21875"
       inkscape:export-ydpi="4.21875" />
  </g>
</svg>
