<?xml version="1.0" encoding="UTF-8" standalone="no"?>
<!-- Created with Inkscape (http://www.inkscape.org/) -->

<svg
   xmlns:dc="http://purl.org/dc/elements/1.1/"
   xmlns:cc="http://creativecommons.org/ns#"
   xmlns:rdf="http://www.w3.org/1999/02/22-rdf-syntax-ns#"
   xmlns:svg="http://www.w3.org/2000/svg"
   xmlns="http://www.w3.org/2000/svg"
   xmlns:sodipodi="http://sodipodi.sourceforge.net/DTD/sodipodi-0.dtd"
   xmlns:inkscape="http://www.inkscape.org/namespaces/inkscape"
   width="7680"
   height="512"
   id="svg3997"
   version="1.1"
   inkscape:version="0.48.2 r9819"
   sodipodi:docname="Pigeon Walking Smaller.svg">
  <defs
     id="defs3999" />
  <sodipodi:namedview
     id="base"
     pagecolor="#ffffff"
     bordercolor="#666666"
     borderopacity="1.0"
     inkscape:pageopacity="0.0"
     inkscape:pageshadow="2"
     inkscape:zoom="0.22916667"
     inkscape:cx="2254.4593"
     inkscape:cy="599.84083"
     inkscape:document-units="px"
     inkscape:current-layer="layer3"
     showgrid="false"
     showguides="true"
     inkscape:guide-bbox="true"
     inkscape:window-width="1920"
     inkscape:window-height="1003"
     inkscape:window-x="-9"
     inkscape:window-y="-9"
     inkscape:window-maximized="1">
    <sodipodi:guide
       orientation="0,1"
       position="0,0"
       id="guide4005" />
    <sodipodi:guide
       orientation="0,1"
       position="0,512"
       id="guide4007" />
    <sodipodi:guide
       orientation="1,0"
       position="0,0"
       id="guide4009" />
    <sodipodi:guide
       orientation="1,0"
       position="512,0"
       id="guide4011" />
    <sodipodi:guide
       orientation="1,0"
       position="1024,0"
       id="guide4013" />
    <sodipodi:guide
       orientation="1,0"
       position="1535,0"
       id="guide4015" />
    <sodipodi:guide
       orientation="1,0"
       position="2048,1202.8571"
       id="guide4017" />
    <sodipodi:guide
       orientation="1,0"
       position="2560,0"
       id="guide4019" />
    <sodipodi:guide
       orientation="1,0"
       position="3072,0"
       id="guide4021" />
    <sodipodi:guide
       orientation="1,0"
       position="3584,0"
       id="guide4023" />
    <sodipodi:guide
       orientation="1,0"
       position="4096,0"
       id="guide4025" />
    <sodipodi:guide
       orientation="1,0"
       position="4608,0"
       id="guide4027" />
    <sodipodi:guide
       orientation="1,0"
       position="5120,0"
       id="guide4029" />
    <sodipodi:guide
       orientation="1,0"
       position="5632,0"
       id="guide4031" />
    <sodipodi:guide
       orientation="1,0"
       position="6144,0"
       id="guide4033" />
    <sodipodi:guide
       orientation="1,0"
       position="6656,0"
       id="guide4035" />
    <sodipodi:guide
       orientation="1,0"
       position="7168,2131.4286"
       id="guide4037" />
    <sodipodi:guide
       orientation="1,0"
       position="7680,0"
       id="guide4039" />
  </sodipodi:namedview>
  <metadata
     id="metadata4002">
    <rdf:RDF>
      <cc:Work
         rdf:about="">
        <dc:format>image/svg+xml</dc:format>
        <dc:type
           rdf:resource="http://purl.org/dc/dcmitype/StillImage" />
        <dc:title></dc:title>
      </cc:Work>
    </rdf:RDF>
  </metadata>
  <g
     inkscape:label="Bounding Boxes"
     inkscape:groupmode="layer"
     id="layer1"
     transform="translate(0,-540.36218)"
     sodipodi:insensitive="true">
    <rect
       style="fill:none;stroke:none"
       id="rect4041"
       width="512"
       height="512"
       x="0"
       y="0"
       transform="translate(0,540.36218)" />
    <rect
       y="540.36218"
       x="512"
       height="512"
       width="512"
       id="rect4043"
       style="fill:none;stroke:none" />
    <rect
       style="fill:none;stroke:none"
       id="rect4047"
       width="512"
       height="512"
       x="1024"
       y="540.36218" />
    <rect
       y="540.36218"
       x="1536"
       height="512"
       width="512"
       id="rect4049"
       style="fill:none;stroke:none" />
    <rect
       style="fill:none;stroke:none"
       id="rect4051"
       width="512"
       height="512"
       x="2048"
       y="540.36218" />
    <rect
       y="540.36218"
       x="2560"
       height="512"
       width="512"
       id="rect4053"
       style="fill:none;stroke:none" />
    <rect
       style="fill:none;stroke:none"
       id="rect4055"
       width="512"
       height="512"
       x="3072"
       y="540.36218" />
    <rect
       y="540.36218"
       x="3584"
       height="512"
       width="512"
       id="rect4057"
       style="fill:none;stroke:none" />
    <rect
       style="fill:none;stroke:none"
       id="rect4059"
       width="512"
       height="512"
       x="4096"
       y="540.36218" />
    <rect
       y="540.36218"
       x="4608"
       height="512"
       width="512"
       id="rect4061"
       style="fill:none;stroke:none" />
    <rect
       style="fill:none;stroke:none"
       id="rect4063"
       width="512"
       height="512"
       x="5120"
       y="540.36218" />
    <rect
       y="540.36218"
       x="5632"
       height="512"
       width="512"
       id="rect4065"
       style="fill:none;stroke:none" />
    <rect
       style="fill:none;stroke:none"
       id="rect4067"
       width="512"
       height="512"
       x="6144"
       y="540.36218" />
    <rect
       y="540.36218"
       x="6656"
       height="512"
       width="512"
       id="rect4069"
       style="fill:none;stroke:none" />
    <rect
       style="fill:none;stroke:none"
       id="rect4071"
       width="512"
       height="512"
       x="7168"
       y="540.36218" />
  </g>
  <g
     inkscape:groupmode="layer"
     id="layer2"
     inkscape:label="Frame Numbers"
     sodipodi:insensitive="true">
    <g
       id="g4086"
       transform="matrix(0.56960148,0,0,0.56960148,116.04078,-119.03593)">
      <path
         transform="translate(-34.285714,-22.857143)"
         d="m 428.57143,-253.71428 c 0,82.05373 -66.5177,148.57143 -148.57143,148.57143 -82.05373,0 -148.57143,-66.5177 -148.57143,-148.57143 0,-82.05373 66.5177,-148.57143 148.57143,-148.57143 82.05373,0 148.57143,66.5177 148.57143,148.57143 z"
         sodipodi:ry="148.57143"
         sodipodi:rx="148.57143"
         sodipodi:cy="-253.71428"
         sodipodi:cx="280"
         id="path4074"
         style="fill:#000000;fill-opacity:1;stroke:none"
         sodipodi:type="arc" />
      <text
         sodipodi:linespacing="125%"
         id="text4076"
         y="-223.16371"
         x="146.1107"
         style="font-size:164.10952759px;font-style:normal;font-variant:normal;font-weight:normal;font-stretch:normal;text-align:start;line-height:125%;letter-spacing:0px;word-spacing:0px;writing-mode:lr-tb;text-anchor:start;fill:#ffffff;fill-opacity:1;stroke:none;font-family:OCR A Extended;-inkscape-font-specification:OCR A Extended"
         xml:space="preserve"><tspan
           y="-223.16371"
           x="146.1107"
           id="tspan4078"
           sodipodi:role="line">01</tspan></text>
    </g>
    <g
       transform="matrix(0.56960148,0,0,0.56960148,628.04078,-119.03593)"
       id="g4091">
      <path
         sodipodi:type="arc"
         style="fill:#000000;fill-opacity:1;stroke:none"
         id="path4093"
         sodipodi:cx="280"
         sodipodi:cy="-253.71428"
         sodipodi:rx="148.57143"
         sodipodi:ry="148.57143"
         d="m 428.57143,-253.71428 c 0,82.05373 -66.5177,148.57143 -148.57143,148.57143 -82.05373,0 -148.57143,-66.5177 -148.57143,-148.57143 0,-82.05373 66.5177,-148.57143 148.57143,-148.57143 82.05373,0 148.57143,66.5177 148.57143,148.57143 z"
         transform="translate(-34.285714,-22.857143)" />
      <text
         xml:space="preserve"
         style="font-size:164.10952759px;font-style:normal;font-variant:normal;font-weight:normal;font-stretch:normal;text-align:start;line-height:125%;letter-spacing:0px;word-spacing:0px;writing-mode:lr-tb;text-anchor:start;fill:#ffffff;fill-opacity:1;stroke:none;font-family:OCR A Extended;-inkscape-font-specification:OCR A Extended"
         x="146.1107"
         y="-223.16371"
         id="text4095"
         sodipodi:linespacing="125%"><tspan
           sodipodi:role="line"
           id="tspan4097"
           x="146.1107"
           y="-223.16371">02</tspan></text>
    </g>
    <g
       id="g4099"
       transform="matrix(0.56960148,0,0,0.56960148,1140.0408,-119.03593)">
      <path
         transform="translate(-34.285714,-22.857143)"
         d="m 428.57143,-253.71428 c 0,82.05373 -66.5177,148.57143 -148.57143,148.57143 -82.05373,0 -148.57143,-66.5177 -148.57143,-148.57143 0,-82.05373 66.5177,-148.57143 148.57143,-148.57143 82.05373,0 148.57143,66.5177 148.57143,148.57143 z"
         sodipodi:ry="148.57143"
         sodipodi:rx="148.57143"
         sodipodi:cy="-253.71428"
         sodipodi:cx="280"
         id="path4101"
         style="fill:#000000;fill-opacity:1;stroke:none"
         sodipodi:type="arc" />
      <text
         sodipodi:linespacing="125%"
         id="text4103"
         y="-223.16371"
         x="146.1107"
         style="font-size:164.10952759px;font-style:normal;font-variant:normal;font-weight:normal;font-stretch:normal;text-align:start;line-height:125%;letter-spacing:0px;word-spacing:0px;writing-mode:lr-tb;text-anchor:start;fill:#ffffff;fill-opacity:1;stroke:none;font-family:OCR A Extended;-inkscape-font-specification:OCR A Extended"
         xml:space="preserve"><tspan
           y="-223.16371"
           x="146.1107"
           id="tspan4105"
           sodipodi:role="line">03</tspan></text>
    </g>
    <g
       transform="matrix(0.56960148,0,0,0.56960148,1652.0408,-119.03593)"
       id="g4107">
      <path
         sodipodi:type="arc"
         style="fill:#000000;fill-opacity:1;stroke:none"
         id="path4109"
         sodipodi:cx="280"
         sodipodi:cy="-253.71428"
         sodipodi:rx="148.57143"
         sodipodi:ry="148.57143"
         d="m 428.57143,-253.71428 c 0,82.05373 -66.5177,148.57143 -148.57143,148.57143 -82.05373,0 -148.57143,-66.5177 -148.57143,-148.57143 0,-82.05373 66.5177,-148.57143 148.57143,-148.57143 82.05373,0 148.57143,66.5177 148.57143,148.57143 z"
         transform="translate(-34.285714,-22.857143)" />
      <text
         xml:space="preserve"
         style="font-size:164.10952759px;font-style:normal;font-variant:normal;font-weight:normal;font-stretch:normal;text-align:start;line-height:125%;letter-spacing:0px;word-spacing:0px;writing-mode:lr-tb;text-anchor:start;fill:#ffffff;fill-opacity:1;stroke:none;font-family:OCR A Extended;-inkscape-font-specification:OCR A Extended"
         x="146.1107"
         y="-223.16371"
         id="text4111"
         sodipodi:linespacing="125%"><tspan
           sodipodi:role="line"
           id="tspan4113"
           x="146.1107"
           y="-223.16371">04</tspan></text>
    </g>
    <g
       id="g4115"
       transform="matrix(0.56960148,0,0,0.56960148,2164.0408,-119.03593)">
      <path
         transform="translate(-34.285714,-22.857143)"
         d="m 428.57143,-253.71428 c 0,82.05373 -66.5177,148.57143 -148.57143,148.57143 -82.05373,0 -148.57143,-66.5177 -148.57143,-148.57143 0,-82.05373 66.5177,-148.57143 148.57143,-148.57143 82.05373,0 148.57143,66.5177 148.57143,148.57143 z"
         sodipodi:ry="148.57143"
         sodipodi:rx="148.57143"
         sodipodi:cy="-253.71428"
         sodipodi:cx="280"
         id="path4117"
         style="fill:#000000;fill-opacity:1;stroke:none"
         sodipodi:type="arc" />
      <text
         sodipodi:linespacing="125%"
         id="text4119"
         y="-223.16371"
         x="146.1107"
         style="font-size:164.10952759px;font-style:normal;font-variant:normal;font-weight:normal;font-stretch:normal;text-align:start;line-height:125%;letter-spacing:0px;word-spacing:0px;writing-mode:lr-tb;text-anchor:start;fill:#ffffff;fill-opacity:1;stroke:none;font-family:OCR A Extended;-inkscape-font-specification:OCR A Extended"
         xml:space="preserve"><tspan
           y="-223.16371"
           x="146.1107"
           id="tspan4121"
           sodipodi:role="line">05</tspan></text>
    </g>
    <g
       transform="matrix(0.56960148,0,0,0.56960148,2676.0408,-119.03593)"
       id="g4123">
      <path
         sodipodi:type="arc"
         style="fill:#000000;fill-opacity:1;stroke:none"
         id="path4125"
         sodipodi:cx="280"
         sodipodi:cy="-253.71428"
         sodipodi:rx="148.57143"
         sodipodi:ry="148.57143"
         d="m 428.57143,-253.71428 c 0,82.05373 -66.5177,148.57143 -148.57143,148.57143 -82.05373,0 -148.57143,-66.5177 -148.57143,-148.57143 0,-82.05373 66.5177,-148.57143 148.57143,-148.57143 82.05373,0 148.57143,66.5177 148.57143,148.57143 z"
         transform="translate(-34.285714,-22.857143)" />
      <text
         xml:space="preserve"
         style="font-size:164.10952759px;font-style:normal;font-variant:normal;font-weight:normal;font-stretch:normal;text-align:start;line-height:125%;letter-spacing:0px;word-spacing:0px;writing-mode:lr-tb;text-anchor:start;fill:#ffffff;fill-opacity:1;stroke:none;font-family:OCR A Extended;-inkscape-font-specification:OCR A Extended"
         x="146.1107"
         y="-223.16371"
         id="text4127"
         sodipodi:linespacing="125%"><tspan
           sodipodi:role="line"
           id="tspan4129"
           x="146.1107"
           y="-223.16371">06</tspan></text>
    </g>
    <g
       id="g4131"
       transform="matrix(0.56960148,0,0,0.56960148,3188.0408,-119.03593)">
      <path
         transform="translate(-34.285714,-22.857143)"
         d="m 428.57143,-253.71428 c 0,82.05373 -66.5177,148.57143 -148.57143,148.57143 -82.05373,0 -148.57143,-66.5177 -148.57143,-148.57143 0,-82.05373 66.5177,-148.57143 148.57143,-148.57143 82.05373,0 148.57143,66.5177 148.57143,148.57143 z"
         sodipodi:ry="148.57143"
         sodipodi:rx="148.57143"
         sodipodi:cy="-253.71428"
         sodipodi:cx="280"
         id="path4133"
         style="fill:#000000;fill-opacity:1;stroke:none"
         sodipodi:type="arc" />
      <text
         sodipodi:linespacing="125%"
         id="text4135"
         y="-223.16371"
         x="146.1107"
         style="font-size:164.10952759px;font-style:normal;font-variant:normal;font-weight:normal;font-stretch:normal;text-align:start;line-height:125%;letter-spacing:0px;word-spacing:0px;writing-mode:lr-tb;text-anchor:start;fill:#ffffff;fill-opacity:1;stroke:none;font-family:OCR A Extended;-inkscape-font-specification:OCR A Extended"
         xml:space="preserve"><tspan
           y="-223.16371"
           x="146.1107"
           id="tspan4137"
           sodipodi:role="line">07</tspan></text>
    </g>
    <g
       transform="matrix(0.56960148,0,0,0.56960148,3700.0408,-119.03593)"
       id="g4139">
      <path
         sodipodi:type="arc"
         style="fill:#000000;fill-opacity:1;stroke:none"
         id="path4141"
         sodipodi:cx="280"
         sodipodi:cy="-253.71428"
         sodipodi:rx="148.57143"
         sodipodi:ry="148.57143"
         d="m 428.57143,-253.71428 c 0,82.05373 -66.5177,148.57143 -148.57143,148.57143 -82.05373,0 -148.57143,-66.5177 -148.57143,-148.57143 0,-82.05373 66.5177,-148.57143 148.57143,-148.57143 82.05373,0 148.57143,66.5177 148.57143,148.57143 z"
         transform="translate(-34.285714,-22.857143)" />
      <text
         xml:space="preserve"
         style="font-size:164.10952759px;font-style:normal;font-variant:normal;font-weight:normal;font-stretch:normal;text-align:start;line-height:125%;letter-spacing:0px;word-spacing:0px;writing-mode:lr-tb;text-anchor:start;fill:#ffffff;fill-opacity:1;stroke:none;font-family:OCR A Extended;-inkscape-font-specification:OCR A Extended"
         x="146.1107"
         y="-223.16371"
         id="text4143"
         sodipodi:linespacing="125%"><tspan
           sodipodi:role="line"
           id="tspan4145"
           x="146.1107"
           y="-223.16371">08</tspan></text>
    </g>
    <g
       id="g4147"
       transform="matrix(0.56960148,0,0,0.56960148,4212.0408,-119.03593)">
      <path
         transform="translate(-34.285714,-22.857143)"
         d="m 428.57143,-253.71428 c 0,82.05373 -66.5177,148.57143 -148.57143,148.57143 -82.05373,0 -148.57143,-66.5177 -148.57143,-148.57143 0,-82.05373 66.5177,-148.57143 148.57143,-148.57143 82.05373,0 148.57143,66.5177 148.57143,148.57143 z"
         sodipodi:ry="148.57143"
         sodipodi:rx="148.57143"
         sodipodi:cy="-253.71428"
         sodipodi:cx="280"
         id="path4149"
         style="fill:#000000;fill-opacity:1;stroke:none"
         sodipodi:type="arc" />
      <text
         sodipodi:linespacing="125%"
         id="text4151"
         y="-223.16371"
         x="146.1107"
         style="font-size:164.10952759px;font-style:normal;font-variant:normal;font-weight:normal;font-stretch:normal;text-align:start;line-height:125%;letter-spacing:0px;word-spacing:0px;writing-mode:lr-tb;text-anchor:start;fill:#ffffff;fill-opacity:1;stroke:none;font-family:OCR A Extended;-inkscape-font-specification:OCR A Extended"
         xml:space="preserve"><tspan
           y="-223.16371"
           x="146.1107"
           id="tspan4153"
           sodipodi:role="line">09</tspan></text>
    </g>
    <g
       transform="matrix(0.56960148,0,0,0.56960148,4724.0408,-119.03593)"
       id="g4155">
      <path
         sodipodi:type="arc"
         style="fill:#000000;fill-opacity:1;stroke:none"
         id="path4157"
         sodipodi:cx="280"
         sodipodi:cy="-253.71428"
         sodipodi:rx="148.57143"
         sodipodi:ry="148.57143"
         d="m 428.57143,-253.71428 c 0,82.05373 -66.5177,148.57143 -148.57143,148.57143 -82.05373,0 -148.57143,-66.5177 -148.57143,-148.57143 0,-82.05373 66.5177,-148.57143 148.57143,-148.57143 82.05373,0 148.57143,66.5177 148.57143,148.57143 z"
         transform="translate(-34.285714,-22.857143)" />
      <text
         xml:space="preserve"
         style="font-size:164.10952759px;font-style:normal;font-variant:normal;font-weight:normal;font-stretch:normal;text-align:start;line-height:125%;letter-spacing:0px;word-spacing:0px;writing-mode:lr-tb;text-anchor:start;fill:#ffffff;fill-opacity:1;stroke:none;font-family:OCR A Extended;-inkscape-font-specification:OCR A Extended"
         x="146.1107"
         y="-223.16371"
         id="text4159"
         sodipodi:linespacing="125%"><tspan
           sodipodi:role="line"
           id="tspan4161"
           x="146.1107"
           y="-223.16371">10</tspan></text>
    </g>
    <g
       id="g4163"
       transform="matrix(0.56960148,0,0,0.56960148,5236.0408,-119.03593)">
      <path
         transform="translate(-34.285714,-22.857143)"
         d="m 428.57143,-253.71428 c 0,82.05373 -66.5177,148.57143 -148.57143,148.57143 -82.05373,0 -148.57143,-66.5177 -148.57143,-148.57143 0,-82.05373 66.5177,-148.57143 148.57143,-148.57143 82.05373,0 148.57143,66.5177 148.57143,148.57143 z"
         sodipodi:ry="148.57143"
         sodipodi:rx="148.57143"
         sodipodi:cy="-253.71428"
         sodipodi:cx="280"
         id="path4165"
         style="fill:#000000;fill-opacity:1;stroke:none"
         sodipodi:type="arc" />
      <text
         sodipodi:linespacing="125%"
         id="text4167"
         y="-223.16371"
         x="146.1107"
         style="font-size:164.10952759px;font-style:normal;font-variant:normal;font-weight:normal;font-stretch:normal;text-align:start;line-height:125%;letter-spacing:0px;word-spacing:0px;writing-mode:lr-tb;text-anchor:start;fill:#ffffff;fill-opacity:1;stroke:none;font-family:OCR A Extended;-inkscape-font-specification:OCR A Extended"
         xml:space="preserve"><tspan
           y="-223.16371"
           x="146.1107"
           id="tspan4169"
           sodipodi:role="line">11</tspan></text>
    </g>
    <g
       transform="matrix(0.56960148,0,0,0.56960148,5748.0408,-119.03593)"
       id="g4171">
      <path
         sodipodi:type="arc"
         style="fill:#000000;fill-opacity:1;stroke:none"
         id="path4173"
         sodipodi:cx="280"
         sodipodi:cy="-253.71428"
         sodipodi:rx="148.57143"
         sodipodi:ry="148.57143"
         d="m 428.57143,-253.71428 c 0,82.05373 -66.5177,148.57143 -148.57143,148.57143 -82.05373,0 -148.57143,-66.5177 -148.57143,-148.57143 0,-82.05373 66.5177,-148.57143 148.57143,-148.57143 82.05373,0 148.57143,66.5177 148.57143,148.57143 z"
         transform="translate(-34.285714,-22.857143)" />
      <text
         xml:space="preserve"
         style="font-size:164.10952759px;font-style:normal;font-variant:normal;font-weight:normal;font-stretch:normal;text-align:start;line-height:125%;letter-spacing:0px;word-spacing:0px;writing-mode:lr-tb;text-anchor:start;fill:#ffffff;fill-opacity:1;stroke:none;font-family:OCR A Extended;-inkscape-font-specification:OCR A Extended"
         x="146.1107"
         y="-223.16371"
         id="text4175"
         sodipodi:linespacing="125%"><tspan
           sodipodi:role="line"
           id="tspan4177"
           x="146.1107"
           y="-223.16371">12</tspan></text>
    </g>
    <g
       id="g4179"
       transform="matrix(0.56960148,0,0,0.56960148,6260.0408,-119.03593)">
      <path
         transform="translate(-34.285714,-22.857143)"
         d="m 428.57143,-253.71428 c 0,82.05373 -66.5177,148.57143 -148.57143,148.57143 -82.05373,0 -148.57143,-66.5177 -148.57143,-148.57143 0,-82.05373 66.5177,-148.57143 148.57143,-148.57143 82.05373,0 148.57143,66.5177 148.57143,148.57143 z"
         sodipodi:ry="148.57143"
         sodipodi:rx="148.57143"
         sodipodi:cy="-253.71428"
         sodipodi:cx="280"
         id="path4181"
         style="fill:#000000;fill-opacity:1;stroke:none"
         sodipodi:type="arc" />
      <text
         sodipodi:linespacing="125%"
         id="text4183"
         y="-223.16371"
         x="146.1107"
         style="font-size:164.10952759px;font-style:normal;font-variant:normal;font-weight:normal;font-stretch:normal;text-align:start;line-height:125%;letter-spacing:0px;word-spacing:0px;writing-mode:lr-tb;text-anchor:start;fill:#ffffff;fill-opacity:1;stroke:none;font-family:OCR A Extended;-inkscape-font-specification:OCR A Extended"
         xml:space="preserve"><tspan
           y="-223.16371"
           x="146.1107"
           id="tspan4185"
           sodipodi:role="line">13</tspan></text>
    </g>
    <g
       transform="matrix(0.56960148,0,0,0.56960148,6772.0408,-119.03593)"
       id="g4187">
      <path
         sodipodi:type="arc"
         style="fill:#000000;fill-opacity:1;stroke:none"
         id="path4189"
         sodipodi:cx="280"
         sodipodi:cy="-253.71428"
         sodipodi:rx="148.57143"
         sodipodi:ry="148.57143"
         d="m 428.57143,-253.71428 c 0,82.05373 -66.5177,148.57143 -148.57143,148.57143 -82.05373,0 -148.57143,-66.5177 -148.57143,-148.57143 0,-82.05373 66.5177,-148.57143 148.57143,-148.57143 82.05373,0 148.57143,66.5177 148.57143,148.57143 z"
         transform="translate(-34.285714,-22.857143)" />
      <text
         xml:space="preserve"
         style="font-size:164.10952759px;font-style:normal;font-variant:normal;font-weight:normal;font-stretch:normal;text-align:start;line-height:125%;letter-spacing:0px;word-spacing:0px;writing-mode:lr-tb;text-anchor:start;fill:#ffffff;fill-opacity:1;stroke:none;font-family:OCR A Extended;-inkscape-font-specification:OCR A Extended"
         x="146.1107"
         y="-223.16371"
         id="text4191"
         sodipodi:linespacing="125%"><tspan
           sodipodi:role="line"
           id="tspan4193"
           x="146.1107"
           y="-223.16371">14</tspan></text>
    </g>
    <g
       id="g4195"
       transform="matrix(0.56960148,0,0,0.56960148,7284.0408,-119.03593)">
      <path
         transform="translate(-34.285714,-22.857143)"
         d="m 428.57143,-253.71428 c 0,82.05373 -66.5177,148.57143 -148.57143,148.57143 -82.05373,0 -148.57143,-66.5177 -148.57143,-148.57143 0,-82.05373 66.5177,-148.57143 148.57143,-148.57143 82.05373,0 148.57143,66.5177 148.57143,148.57143 z"
         sodipodi:ry="148.57143"
         sodipodi:rx="148.57143"
         sodipodi:cy="-253.71428"
         sodipodi:cx="280"
         id="path4197"
         style="fill:#000000;fill-opacity:1;stroke:none"
         sodipodi:type="arc" />
      <text
         sodipodi:linespacing="125%"
         id="text4199"
         y="-223.16371"
         x="146.1107"
         style="font-size:164.10952759px;font-style:normal;font-variant:normal;font-weight:normal;font-stretch:normal;text-align:start;line-height:125%;letter-spacing:0px;word-spacing:0px;writing-mode:lr-tb;text-anchor:start;fill:#ffffff;fill-opacity:1;stroke:none;font-family:OCR A Extended;-inkscape-font-specification:OCR A Extended"
         xml:space="preserve"><tspan
           y="-223.16371"
           x="146.1107"
           id="tspan4201"
           sodipodi:role="line">15</tspan></text>
    </g>
    <text
       xml:space="preserve"
       style="font-size:289.00238037px;font-style:normal;font-variant:normal;font-weight:normal;font-stretch:normal;text-align:start;line-height:125%;letter-spacing:0px;word-spacing:0px;writing-mode:lr-tb;text-anchor:start;fill:#000000;fill-opacity:1;stroke:none;font-family:OCR A Extended;-inkscape-font-specification:OCR A Extended"
       x="144.23016"
       y="-489.69809"
       id="text3084"
       sodipodi:linespacing="125%"><tspan
         sodipodi:role="line"
         id="tspan3086"
         x="144.23016"
         y="-489.69809">Pigeon Walking</tspan></text>
  </g>
  <g
     inkscape:groupmode="layer"
     id="layer3"
     inkscape:label="Frames">
    <rect
       style="fill:none;stroke:none"
       id="rect3881"
       width="512"
       height="512"
       x="0"
       y="0"
       inkscape:export-filename="C:\Dropbox\GameOn\Demos\Art Prep\Pigeon\Walking\BirdWalking48_Strip.png"
       inkscape:export-xdpi="8.4375"
       inkscape:export-ydpi="8.4375" />
    <g
       id="g3272"
       transform="matrix(0.66037683,0,0,0.66037683,82.902806,174.47611)">
      <g
         inkscape:export-ydpi="8.4375"
         inkscape:export-xdpi="8.4375"
         inkscape:export-filename="C:\Dropbox\GameOn\Demos\Art Prep\Pigeon\Walking\BirdWalking48_Strip.png"
         id="g4204"
         inkscape:transform-center-x="-31.984258"
         inkscape:transform-center-y="33.81193">
        <path
           sodipodi:nodetypes="sssssssss"
           inkscape:connector-curvature="0"
           id="path4206"
           d="m 344.18549,336.13853 7.94133,2.33009 c 10.99873,3.22717 35.31595,27.11256 19.85833,43.46819 -8.57138,9.06934 -17.1221,18.17999 -23.94491,30.74644 -9.44572,17.39741 -12.87575,24.30839 -23.87448,21.08121 l -7.94132,-2.33009 c -10.99873,-3.22717 -15.36632,-21.11758 -9.79281,-40.11303 l 7.84007,-26.72023 c 5.57351,-18.99545 18.91507,-31.68976 29.91379,-28.46258 z"
           style="fill:#f2f2f2;fill-opacity:1;stroke:none" />
        <g
           inkscape:transform-center-y="28.328915"
           inkscape:transform-center-x="-35.639602"
           id="g4208">
          <g
             id="g4210"
             transform="translate(-0.26495351,-1.1623916)"
             inkscape:transform-center-x="-31.070422"
             inkscape:transform-center-y="16.449047">
            <path
               sodipodi:nodetypes="cccccccccccccccccc"
               inkscape:connector-curvature="0"
               id="path4212"
               d="m 323.94081,471.40521 c 2.79778,6.14925 6.01886,17.32384 11.75981,23.00879 2.44962,2.3985 -4.24531,3.10356 -9.22388,4.12647 -7.1086,-0.41031 -15.32468,-1.05226 -14.1255,13.45953 l 7.65475,-3.75019 c 6.62414,4.98245 11.99978,1.99512 18.60744,-1.21366 10.9458,5.03546 14.61347,4.96385 21.06278,-0.33525 2.55524,0.70325 7.34173,1.93319 8.88235,5.2991 1.02632,-1.80866 0.34469,-4.2619 -1.00522,-7.12666 6.94574,0.58371 15.47242,3.68851 21.30595,2.04778 6.20796,-1.77053 11.2745,4.25275 19.35288,1.68061 4.77373,-1.36389 5.67068,2.25665 8.49568,3.39827 -1.39061,-6.03747 -5.76643,-9.44287 -10.11176,-9.21102 -5.93421,1.13081 -11.86985,-7.32524 -17.25133,-5.21945 -8.30986,-4.32709 -17.5351,-2.71669 -26.15027,-0.53075 -11.20495,-2.9897 -8.73979,-2.29449 -14.87172,-11.60593 l -8.32974,-18.79909 z"
               style="fill:#ffdd55;stroke:#000000;stroke-width:1px;stroke-linecap:butt;stroke-linejoin:miter;stroke-opacity:1" />
            <path
               id="path4214"
               d="m 322.4375,498.375 c -5.8126,0.0355 -11.06808,1.83417 -10.09375,13.625 L 320,508.25 c 0.15732,0.11833 0.3128,0.20305 0.46875,0.3125 L 326.6875,498.5 c -0.0698,0.0141 -0.14956,0.017 -0.21875,0.0312 -1.33286,-0.0769 -2.68988,-0.16445 -4.03125,-0.15625 z m 38.6875,4.34375 -1.84375,3.96875 0,0.3125 c 0.13414,-0.1075 0.26971,-0.20031 0.40625,-0.3125 2.55524,0.70325 7.33438,1.94659 8.875,5.3125 1.02632,-1.80866 0.34991,-4.26024 -1,-7.125 0.0302,0.003 0.0635,-0.003 0.0937,0 l -0.15625,-0.15625 -6.375,-2 z m 45.75,0.0625 1.15625,5.875 c 0.0637,-0.0193 0.12339,-0.0421 0.1875,-0.0625 4.77373,-1.36389 5.675,2.26463 8.5,3.40625 -1.36052,-5.90685 -5.59252,-9.29207 -9.84375,-9.21875 z"
               style="fill:#4d4d4d;stroke:none"
               inkscape:connector-curvature="0" />
          </g>
          <path
             sodipodi:nodetypes="sssssssss"
             inkscape:connector-curvature="0"
             id="path4216"
             d="m 310.10853,419.68597 4.69762,-2.20305 c 6.50619,-3.05123 27.84617,-1.92947 27.37705,12.17138 -0.26013,7.81906 -0.4934,15.64893 1.51992,24.38453 2.78729,12.09383 4.04586,16.76423 -2.46032,19.81544 l -4.69764,2.20308 c -6.5062,3.05121 -15.98638,-3.53844 -21.25603,-14.77502 l -7.41264,-15.8061 c -5.26965,-11.23658 -4.27415,-22.73903 2.23204,-25.79026 z"
             style="fill:#f2f2f2;fill-opacity:1;stroke:none" />
        </g>
      </g>
      <g
         inkscape:export-ydpi="8.4375"
         inkscape:export-xdpi="8.4375"
         inkscape:export-filename="C:\Dropbox\GameOn\Demos\Art Prep\Pigeon\Walking\BirdWalking48_Strip.png"
         inkscape:transform-center-x="-24.376722"
         inkscape:transform-center-y="-76.641417"
         transform="matrix(0.99280373,0.11975289,-0.11975289,0.99280373,28.918525,-8.1505184)"
         id="g3870">
        <path
           style="fill:#ffff00;stroke:none"
           d="m 428.8136,88.370875 c 3.5807,2.985223 10.14008,2.897647 15.89905,1.958579 4.03081,3.323721 11.06021,1.958579 11.06021,1.958579 -0.81982,-4.11735 -3.95723,-12.93284 -11.06021,-16.244685 -7.10298,-3.311845 -11.42316,-6.780419 -15.20779,-5.530105 -3.78463,1.250314 -3.80431,3.203183 -4.26279,6.451789 -0.45848,3.248606 -0.009,8.42062 3.57153,11.405843 z"
           id="path3835"
           inkscape:connector-curvature="0"
           sodipodi:nodetypes="zcczzzz" />
        <path
           style="fill:#515947;fill-opacity:1;stroke:none"
           d="m 400.28125,37.25 c -23.24961,0.76197 -42.89617,35.722288 -49.09375,79.0625 -5.61165,39.24281 -16.35072,65.59805 -31.59375,89.03125 -23.14465,65.75918 125.04973,64.74285 104.46875,7.375 -2.59441,-21.1177 -6.53678,-41.26236 -8.9375,-57.90625 -7.85018,-54.42436 6.73675,-67.452235 14.0625,-65.9375 7.32576,1.514735 4.09375,-13.3125 4.09375,-13.3125 0,0 8.97741,5.27651 11.28125,1.03125 2.30384,-4.24526 -5.19771,-7.8828 -11.28125,-16.75 -11.12995,-16.22271 -22.432,-22.9401 -33,-22.59375 z"
           id="path3792"
           inkscape:connector-curvature="0"
           sodipodi:nodetypes="ssccsscsss" />
        <path
           sodipodi:type="arc"
           style="fill:#f9f9f9;fill-opacity:1;stroke:none"
           id="path3824"
           sodipodi:cx="403.98572"
           sodipodi:cy="58.012901"
           sodipodi:rx="11.233027"
           sodipodi:ry="11.233027"
           d="m 415.21875,58.012901 c 0,6.20383 -5.0292,11.233028 -11.23303,11.233028 -6.20383,0 -11.23303,-5.029198 -11.23303,-11.233028 0,-6.203829 5.0292,-11.233027 11.23303,-11.233027 6.20383,0 11.23303,5.029198 11.23303,11.233027 z"
           transform="translate(-2.8802633,-1.728158)" />
        <path
           transform="matrix(0.54871797,0,0,0.54871797,179.43123,23.488921)"
           d="m 415.21875,58.012901 c 0,6.20383 -5.0292,11.233028 -11.23303,11.233028 -6.20383,0 -11.23303,-5.029198 -11.23303,-11.233028 0,-6.203829 5.0292,-11.233027 11.23303,-11.233027 6.20383,0 11.23303,5.029198 11.23303,11.233027 z"
           sodipodi:ry="11.233027"
           sodipodi:rx="11.233027"
           sodipodi:cy="58.012901"
           sodipodi:cx="403.98572"
           id="path3826"
           style="fill:#d40000;fill-opacity:1;stroke:none"
           sodipodi:type="arc" />
        <path
           sodipodi:type="arc"
           style="fill:#000000;fill-opacity:1;stroke:none"
           id="path3828"
           sodipodi:cx="403.98572"
           sodipodi:cy="58.012901"
           sodipodi:rx="11.233027"
           sodipodi:ry="11.233027"
           d="m 415.21875,58.012901 c 0,6.20383 -5.0292,11.233028 -11.23303,11.233028 -6.20383,0 -11.23303,-5.029198 -11.23303,-11.233028 0,-6.203829 5.0292,-11.233027 11.23303,-11.233027 6.20383,0 11.23303,5.029198 11.23303,11.233027 z"
           transform="matrix(0.17948722,0,0,0.17948722,329.21266,45.065692)" />
        <path
           inkscape:connector-curvature="0"
           style="fill:#ececec;stroke:none"
           d="m 433.4375,60.0625 c -3.8804,0.68419 -7.20784,2.651598 -10.28125,5.21875 -2.24179,2.082323 -2.67349,4.33187 -0.40625,6.6875 3.01281,3.19755 5.34077,4.380654 10.78125,5.46875 l 0.0625,0.03125 c -0.16739,-1.117323 -0.3125,-1.90625 -0.3125,-1.90625 0,0 8.97741,5.27651 11.28125,1.03125 2.28418,-4.209036 -5.07019,-7.827775 -11.125,-16.53125 z"
           id="path3830" />
      </g>
      <g
         inkscape:export-ydpi="8.4375"
         inkscape:export-xdpi="8.4375"
         inkscape:export-filename="C:\Dropbox\GameOn\Demos\Art Prep\Pigeon\Walking\BirdWalking48_Strip.png"
         transform="translate(-3.5058594e-6,33.999998)"
         id="g3845">
        <path
           style="fill:#f2f2f2;stroke:none"
           d="m 361.9375,200.875 c -13.39058,0.14926 -27.55996,1.66752 -42.34375,4.46875 -9.24363,14.21029 -20.13846,27.34784 -32.5625,41.65625 -32.91166,37.90342 -127.40342,91.42729 -186.09375,122.59375 -73.012295,33.39307 -54.857132,30.81506 11.9375,15.46875 61.03329,-14.02262 150.67779,-21.72576 165.3125,-16.53125 14.63472,5.1945 24.14824,13.95117 27.375,17 14.95505,1.09411 17.25382,-3.24809 79.75,-43.8125 43.38379,-28.15914 44.63912,-81.06428 38.75,-129 -17.85011,-8.23997 -38.81742,-12.10354 -62.125,-11.84375 z"
           id="path3018"
           inkscape:connector-curvature="0" />
        <path
           style="fill:#1a1a1a;fill-opacity:1;stroke:none"
           d="m 100.53125,369.78125 c -72.499926,33.18172 -54.316617,30.59671 12.34375,15.28125 0.17487,-0.0402 0.35592,-0.0849 0.53125,-0.125 -3.2798,-5.72454 -7.64873,-10.84922 -12.875,-15.15625 z"
           id="path3819"
           inkscape:connector-curvature="0" />
      </g>
      <g
         inkscape:export-ydpi="8.4375"
         inkscape:export-xdpi="8.4375"
         inkscape:export-filename="C:\Dropbox\GameOn\Demos\Art Prep\Pigeon\Walking\BirdWalking48_Strip.png"
         inkscape:transform-center-y="33.81193"
         inkscape:transform-center-x="-31.984258"
         id="g4196">
        <path
           style="fill:#f2f2f2;fill-opacity:1;stroke:none"
           d="m 344.18549,336.13853 7.94133,2.33009 c 10.99873,3.22717 35.31595,27.11256 19.85833,43.46819 -8.57138,9.06934 -17.1221,18.17999 -23.94491,30.74644 -9.44572,17.39741 -12.87575,24.30839 -23.87448,21.08121 l -7.94132,-2.33009 c -10.99873,-3.22717 -15.36632,-21.11758 -9.79281,-40.11303 l 7.84007,-26.72023 c 5.57351,-18.99545 18.91507,-31.68976 29.91379,-28.46258 z"
           id="rect3849"
           inkscape:connector-curvature="0"
           sodipodi:nodetypes="sssssssss" />
        <g
           id="g4190"
           inkscape:transform-center-x="-35.639602"
           inkscape:transform-center-y="28.328915">
          <g
             inkscape:transform-center-y="16.449047"
             inkscape:transform-center-x="-31.070422"
             transform="translate(-0.26495351,-1.1623916)"
             id="g4111">
            <path
               style="fill:#ffdd55;stroke:#000000;stroke-width:1px;stroke-linecap:butt;stroke-linejoin:miter;stroke-opacity:1"
               d="m 323.94081,471.40521 c 2.79778,6.14925 6.01886,17.32384 11.75981,23.00879 2.44962,2.3985 -4.24531,3.10356 -9.22388,4.12647 -7.1086,-0.41031 -15.32468,-1.05226 -14.1255,13.45953 l 7.65475,-3.75019 c 6.62414,4.98245 11.99978,1.99512 18.60744,-1.21366 10.9458,5.03546 14.61347,4.96385 21.06278,-0.33525 2.55524,0.70325 7.34173,1.93319 8.88235,5.2991 1.02632,-1.80866 0.34469,-4.2619 -1.00522,-7.12666 6.94574,0.58371 15.47242,3.68851 21.30595,2.04778 6.20796,-1.77053 11.2745,4.25275 19.35288,1.68061 4.77373,-1.36389 5.67068,2.25665 8.49568,3.39827 -1.39061,-6.03747 -5.76643,-9.44287 -10.11176,-9.21102 -5.93421,1.13081 -11.86985,-7.32524 -17.25133,-5.21945 -8.30986,-4.32709 -17.5351,-2.71669 -26.15027,-0.53075 -11.20495,-2.9897 -8.73979,-2.29449 -14.87172,-11.60593 l -8.32974,-18.79909 z"
               id="path3854"
               inkscape:connector-curvature="0"
               sodipodi:nodetypes="cccccccccccccccccc" />
            <path
               inkscape:connector-curvature="0"
               style="fill:#4d4d4d;stroke:none"
               d="m 322.4375,498.375 c -5.8126,0.0355 -11.06808,1.83417 -10.09375,13.625 L 320,508.25 c 0.15732,0.11833 0.3128,0.20305 0.46875,0.3125 L 326.6875,498.5 c -0.0698,0.0141 -0.14956,0.017 -0.21875,0.0312 -1.33286,-0.0769 -2.68988,-0.16445 -4.03125,-0.15625 z m 38.6875,4.34375 -1.84375,3.96875 0,0.3125 c 0.13414,-0.1075 0.26971,-0.20031 0.40625,-0.3125 2.55524,0.70325 7.33438,1.94659 8.875,5.3125 1.02632,-1.80866 0.34991,-4.26024 -1,-7.125 0.0302,0.003 0.0635,-0.003 0.0937,0 l -0.15625,-0.15625 -6.375,-2 z m 45.75,0.0625 1.15625,5.875 c 0.0637,-0.0193 0.12339,-0.0421 0.1875,-0.0625 4.77373,-1.36389 5.675,2.26463 8.5,3.40625 -1.36052,-5.90685 -5.59252,-9.29207 -9.84375,-9.21875 z"
               id="path4100" />
          </g>
          <path
             style="fill:#f2f2f2;fill-opacity:1;stroke:none"
             d="m 310.10853,419.68597 4.69762,-2.20305 c 6.50619,-3.05123 27.84617,-1.92947 27.37705,12.17138 -0.26013,7.81906 -0.4934,15.64893 1.51992,24.38453 2.78729,12.09383 4.04586,16.76423 -2.46032,19.81544 l -4.69764,2.20308 c -6.5062,3.05121 -15.98638,-3.53844 -21.25603,-14.77502 l -7.41264,-15.8061 c -5.26965,-11.23658 -4.27415,-22.73903 2.23204,-25.79026 z"
             id="path3852"
             inkscape:connector-curvature="0"
             sodipodi:nodetypes="sssssssss" />
        </g>
      </g>
      <g
         inkscape:export-ydpi="8.4375"
         inkscape:export-xdpi="8.4375"
         inkscape:export-filename="C:\Dropbox\GameOn\Demos\Art Prep\Pigeon\Walking\BirdWalking48_Strip.png"
         transform="translate(-3.5058594e-6,33.999998)"
         id="g3837">
        <path
           style="fill:#cccccc;stroke:none"
           d="m 311.61638,229.93277 c -41.0394,30.56229 -106.6059,86.45391 -184.3536,99.12698 -37.86738,6.17248 -46.253845,20.0772 -13.56845,20.58662 11.12649,0.17341 10.20801,0.40999 33.6872,0 23.47919,-0.40999 80.6344,3.22241 107.14404,-3.74302 3.18826,-0.83772 6.83487,4.1831 10.47221,4.19042 14.10617,0.0284 29.65937,-3.77726 37.84107,-7.04188 6.04855,-2.41346 2.17361,5.25499 8.26595,4.85627 10.42293,-0.68215 11.61078,-5.3111 21.17813,-6.17548 4.89301,-0.44207 10.27336,-1.03576 16.75397,-1.91174 27.58961,-3.72929 49.02699,-18.64512 59.28719,-33.83508 11.16171,-16.52462 14.99545,-43.00958 2.54068,-65.19963 C 398.41,218.59619 355.34103,197.37075 311.61638,229.93277 z"
           id="path3801"
           inkscape:connector-curvature="0"
           sodipodi:nodetypes="sssssssscssss" />
        <path
           style="fill:#1a1a1a;stroke:none"
           d="m 261.625,267.28125 c -6.06523,4.29348 -12.38498,8.58993 -18.90625,12.84375 2.27791,5.34991 6.89133,10.84114 10.5,14.03125 5.68372,5.02447 13.64874,3.74572 18.90625,6.84375 5.25751,3.09803 6.63352,7.39281 12.40625,10.84375 5.77273,3.45094 16.48126,5.52691 22.34375,8.40625 5.86249,2.87934 7.29761,5.56022 13.03125,8.0625 5.73364,2.50228 14.27109,2.84328 21.4375,5.875 2.74967,1.16324 5.66562,3.32604 8.5625,5.5 5.68947,-0.82192 11.13813,-2.10581 16.25,-3.78125 -3.25453,-3.80857 -8.71955,-7.67937 -13.03125,-10.09375 -6.71276,-3.75888 -17.23945,-2.162 -22.96875,-5.28125 C 324.42695,317.412 324.86495,313.16264 319,309.6875 313.13505,306.21236 300.8434,306.25663 294.78125,302.25 288.7191,298.24337 287.8035,291.81965 283,288.28125 c -4.8035,-3.5384 -11.64723,-2.58197 -16.15625,-6.84375 -3.26337,-3.08444 -3.22556,-9.84832 -5.21875,-14.15625 z"
           id="path3803"
           inkscape:connector-curvature="0" />
        <path
           style="fill:#1a1a1a;stroke:none"
           d="m 225.15625,291.0625 c -4.8499,2.86964 -9.7945,5.67117 -14.84375,8.375 3.43677,2.08758 7.22717,3.4039 9.65625,6 3.90035,4.16854 4.04229,8.40959 8.3125,13.03125 4.2702,4.62166 13.28792,9.27865 17.78125,13.40625 1.27696,1.17303 2.20537,2.23826 3.03125,3.25 -2.95306,-0.0415 -5.67853,0.37084 -8,0.625 -4.11968,0.45103 -5.42433,2.40787 -9.3125,2.46875 -3.88817,0.0609 -7.4466,-1.70332 -13.34375,-3.09375 -5.89715,-1.39043 -18.93108,0.30601 -22.03125,-5.28125 -3.10017,-5.58726 5.8203,-11.2627 4.96875,-14.875 -0.85155,-3.6123 -4.2613,-2.71058 -4.65625,-4.65625 -0.39495,-1.94567 2,-4.9375 2,-4.9375 -22.25314,10.88111 -46.22456,19.57263 -71.46875,23.6875 -37.86738,6.17248 -46.247895,20.08433 -13.5625,20.59375 11.12649,0.17341 10.20831,0.40999 33.6875,0 23.47919,-0.40999 80.64661,3.21543 107.15625,-3.75 3.18826,-0.83772 6.83141,4.18018 10.46875,4.1875 1.06793,0.002 2.13778,-0.0186 3.21875,-0.0625 0.0414,-0.002 0.0836,0.002 0.125,0 0.74822,-0.0315 1.49893,-0.0752 2.25,-0.125 0.90657,-0.0567 1.81263,-0.13724 2.71875,-0.21875 3.92461,-0.35304 7.82242,-0.9113 11.53125,-1.625 -5.22315,-4.44087 -14.09358,-5.81658 -18.15625,-9.875 -4.31472,-4.31017 -2.87257,-8.05126 -7.21875,-12.71875 -4.34617,-4.66751 -15.26788,-7.83152 -19.65625,-13.03125 -4.38839,-5.19973 -3.61389,-11.23823 -7,-15.6875 -1.97412,-2.59396 -4.94015,-3.988 -7.65625,-5.6875 z"
           id="path3807"
           inkscape:connector-curvature="0" />
      </g>
    </g>
    <rect
       y="0"
       x="512"
       height="512"
       width="512"
       id="rect4290"
       style="fill:none;stroke:none"
       inkscape:export-filename="C:\Dropbox\GameOn\Demos\Art Prep\Pigeon\Walking\BirdWalking48_Strip.png"
       inkscape:export-xdpi="8.4375"
       inkscape:export-ydpi="8.4375" />
    <g
       id="g3302"
       transform="matrix(0.66037683,0,0,0.66037683,262.30031,174.47611)">
      <g
         inkscape:export-ydpi="8.4375"
         inkscape:export-xdpi="8.4375"
         inkscape:export-filename="C:\Dropbox\GameOn\Demos\Art Prep\Pigeon\Walking\BirdWalking48_Strip.png"
         transform="matrix(0.74712587,0.66468258,-0.66468258,0.74712587,844.303,-108.59792)"
         inkscape:transform-center-y="30.794237"
         inkscape:transform-center-x="10.616282"
         id="g4276">
        <path
           style="fill:#cccccc;fill-opacity:1;stroke:none"
           d="m 307.86815,342.38178 8.25172,-0.63495 c 11.42861,-0.87944 42.63153,12.83981 33.97218,33.61143 -4.80169,11.51804 -9.56941,23.0674 -11.49682,37.23608 -2.66836,19.61559 -3.42705,27.29356 -14.85568,28.17299 l -8.2517,0.63495 c -11.42861,0.87944 -21.85202,-14.30263 -23.37087,-34.04052 l -2.13651,-27.76459 c -1.51884,-19.73789 6.45907,-36.33596 17.88768,-37.21538 z"
           id="path4278"
           inkscape:connector-curvature="0"
           sodipodi:nodetypes="sssssssss" />
        <g
           transform="matrix(0.91354473,-0.40673828,0.40673828,0.91354473,-148.98387,169.8635)"
           id="g4280"
           inkscape:transform-center-x="-46.283918"
           inkscape:transform-center-y="27.654647">
          <g
             inkscape:transform-center-y="10.913045"
             inkscape:transform-center-x="-33.927523"
             transform="matrix(0.94428596,-0.32912615,0.32912615,0.94428596,-135.19702,135.91778)"
             id="g4282">
            <path
               style="fill:#ffdd55;stroke:#000000;stroke-width:1px;stroke-linecap:butt;stroke-linejoin:miter;stroke-opacity:1"
               d="m 323.94081,471.40521 c 2.79778,6.14925 6.01886,17.32384 11.75981,23.00879 2.44962,2.3985 -4.24531,3.10356 -9.22388,4.12647 -7.1086,-0.41031 -15.32468,-1.05226 -14.1255,13.45953 l 7.65475,-3.75019 c 6.62414,4.98245 11.99978,1.99512 18.60744,-1.21366 10.9458,5.03546 14.61347,4.96385 21.06278,-0.33525 2.55524,0.70325 7.34173,1.93319 8.88235,5.2991 1.02632,-1.80866 0.34469,-4.2619 -1.00522,-7.12666 6.94574,0.58371 15.47242,3.68851 21.30595,2.04778 6.20796,-1.77053 11.2745,4.25275 19.35288,1.68061 4.77373,-1.36389 5.67068,2.25665 8.49568,3.39827 -1.39061,-6.03747 -5.76643,-9.44287 -10.11176,-9.21102 -5.93421,1.13081 -11.86985,-7.32524 -17.25133,-5.21945 -8.30986,-4.32709 -17.5351,-2.71669 -26.15027,-0.53075 -11.20495,-2.9897 -8.73979,-2.29449 -14.87172,-11.60593 l -8.32974,-18.79909 z"
               id="path4284"
               inkscape:connector-curvature="0"
               sodipodi:nodetypes="cccccccccccccccccc" />
            <path
               inkscape:connector-curvature="0"
               style="fill:#4d4d4d;stroke:none"
               d="m 322.4375,498.375 c -5.8126,0.0355 -11.06808,1.83417 -10.09375,13.625 L 320,508.25 c 0.15732,0.11833 0.3128,0.20305 0.46875,0.3125 L 326.6875,498.5 c -0.0698,0.0141 -0.14956,0.017 -0.21875,0.0312 -1.33286,-0.0769 -2.68988,-0.16445 -4.03125,-0.15625 z m 38.6875,4.34375 -1.84375,3.96875 0,0.3125 c 0.13414,-0.1075 0.26971,-0.20031 0.40625,-0.3125 2.55524,0.70325 7.33438,1.94659 8.875,5.3125 1.02632,-1.80866 0.34991,-4.26024 -1,-7.125 0.0302,0.003 0.0635,-0.003 0.0937,0 l -0.15625,-0.15625 -6.375,-2 z m 45.75,0.0625 1.15625,5.875 c 0.0637,-0.0193 0.12339,-0.0421 0.1875,-0.0625 4.77373,-1.36389 5.675,2.26463 8.5,3.40625 -1.36052,-5.90685 -5.59252,-9.29207 -9.84375,-9.21875 z"
               id="path4286" />
          </g>
          <path
             style="fill:#cccccc;fill-opacity:1;stroke:none"
             d="m 310.10853,419.68597 4.69762,-2.20305 c 6.50619,-3.05123 27.84617,-1.92947 27.37705,12.17138 -0.26013,7.81906 -0.4934,15.64893 1.51992,24.38453 2.78729,12.09383 4.04586,16.76423 -2.46032,19.81544 l -4.69764,2.20308 c -6.5062,3.05121 -15.98638,-3.53844 -21.25603,-14.77502 l -7.41264,-15.8061 c -5.26965,-11.23658 -4.27415,-22.73903 2.23204,-25.79026 z"
             id="path4288"
             inkscape:connector-curvature="0"
             sodipodi:nodetypes="sssssssss" />
        </g>
      </g>
      <g
         inkscape:export-ydpi="8.4375"
         inkscape:export-xdpi="8.4375"
         inkscape:export-filename="C:\Dropbox\GameOn\Demos\Art Prep\Pigeon\Walking\BirdWalking48_Strip.png"
         id="g4292"
         transform="matrix(0.93932044,-0.34304098,0.34304098,0.93932044,463.38907,178.84628)"
         inkscape:transform-center-y="-78.459962"
         inkscape:transform-center-x="3.220411">
        <path
           sodipodi:nodetypes="zcczzzz"
           inkscape:connector-curvature="0"
           id="path4294"
           d="m 428.8136,88.370875 c 3.5807,2.985223 10.14008,2.897647 15.89905,1.958579 4.03081,3.323721 11.06021,1.958579 11.06021,1.958579 -0.81982,-4.11735 -3.95723,-12.93284 -11.06021,-16.244685 -7.10298,-3.311845 -11.42316,-6.780419 -15.20779,-5.530105 -3.78463,1.250314 -3.80431,3.203183 -4.26279,6.451789 -0.45848,3.248606 -0.009,8.42062 3.57153,11.405843 z"
           style="fill:#ffff00;stroke:none" />
        <path
           sodipodi:nodetypes="ssccsscsss"
           inkscape:connector-curvature="0"
           id="path4296"
           d="m 400.28125,37.25 c -23.24961,0.76197 -42.89617,35.722288 -49.09375,79.0625 -5.61165,39.24281 -16.35072,65.59805 -31.59375,89.03125 -23.14465,65.75918 125.04973,64.74285 104.46875,7.375 -2.59441,-21.1177 -6.53678,-41.26236 -8.9375,-57.90625 -7.85018,-54.42436 6.73675,-67.452235 14.0625,-65.9375 7.32576,1.514735 4.09375,-13.3125 4.09375,-13.3125 0,0 8.97741,5.27651 11.28125,1.03125 2.30384,-4.24526 -5.19771,-7.8828 -11.28125,-16.75 -11.12995,-16.22271 -22.432,-22.9401 -33,-22.59375 z"
           style="fill:#515947;fill-opacity:1;stroke:none" />
        <path
           transform="translate(-2.8802633,-1.728158)"
           d="m 415.21875,58.012901 c 0,6.20383 -5.0292,11.233028 -11.23303,11.233028 -6.20383,0 -11.23303,-5.029198 -11.23303,-11.233028 0,-6.203829 5.0292,-11.233027 11.23303,-11.233027 6.20383,0 11.23303,5.029198 11.23303,11.233027 z"
           sodipodi:ry="11.233027"
           sodipodi:rx="11.233027"
           sodipodi:cy="58.012901"
           sodipodi:cx="403.98572"
           id="path4298"
           style="fill:#f9f9f9;fill-opacity:1;stroke:none"
           sodipodi:type="arc" />
        <path
           sodipodi:type="arc"
           style="fill:#d40000;fill-opacity:1;stroke:none"
           id="path4300"
           sodipodi:cx="403.98572"
           sodipodi:cy="58.012901"
           sodipodi:rx="11.233027"
           sodipodi:ry="11.233027"
           d="m 415.21875,58.012901 c 0,6.20383 -5.0292,11.233028 -11.23303,11.233028 -6.20383,0 -11.23303,-5.029198 -11.23303,-11.233028 0,-6.203829 5.0292,-11.233027 11.23303,-11.233027 6.20383,0 11.23303,5.029198 11.23303,11.233027 z"
           transform="matrix(0.54871797,0,0,0.54871797,179.43123,23.488921)" />
        <path
           transform="matrix(0.17948722,0,0,0.17948722,329.21266,45.065692)"
           d="m 415.21875,58.012901 c 0,6.20383 -5.0292,11.233028 -11.23303,11.233028 -6.20383,0 -11.23303,-5.029198 -11.23303,-11.233028 0,-6.203829 5.0292,-11.233027 11.23303,-11.233027 6.20383,0 11.23303,5.029198 11.23303,11.233027 z"
           sodipodi:ry="11.233027"
           sodipodi:rx="11.233027"
           sodipodi:cy="58.012901"
           sodipodi:cx="403.98572"
           id="path4302"
           style="fill:#000000;fill-opacity:1;stroke:none"
           sodipodi:type="arc" />
        <path
           id="path4304"
           d="m 433.4375,60.0625 c -3.8804,0.68419 -7.20784,2.651598 -10.28125,5.21875 -2.24179,2.082323 -2.67349,4.33187 -0.40625,6.6875 3.01281,3.19755 5.34077,4.380654 10.78125,5.46875 l 0.0625,0.03125 c -0.16739,-1.117323 -0.3125,-1.90625 -0.3125,-1.90625 0,0 8.97741,5.27651 11.28125,1.03125 2.28418,-4.209036 -5.07019,-7.827775 -11.125,-16.53125 z"
           style="fill:#ececec;stroke:none"
           inkscape:connector-curvature="0" />
      </g>
      <g
         inkscape:export-ydpi="8.4375"
         inkscape:export-xdpi="8.4375"
         inkscape:export-filename="C:\Dropbox\GameOn\Demos\Art Prep\Pigeon\Walking\BirdWalking48_Strip.png"
         transform="matrix(0.81685761,-0.57683936,0.57683936,0.81685761,347.38058,260.85319)"
         id="g4312"
         inkscape:transform-center-x="-56.488082"
         inkscape:transform-center-y="26.203415">
        <path
           sodipodi:nodetypes="sssssssss"
           inkscape:connector-curvature="0"
           id="path4314"
           d="m 344.18549,336.13853 7.94133,2.33009 c 10.99873,3.22717 35.31595,27.11256 19.85833,43.46819 -8.57138,9.06934 -17.1221,18.17999 -23.94491,30.74644 -9.44572,17.39741 -12.87575,24.30839 -23.87448,21.08121 l -7.94132,-2.33009 c -10.99873,-3.22717 -15.36632,-21.11758 -9.79281,-40.11303 l 7.84007,-26.72023 c 5.57351,-18.99545 18.91507,-31.68976 29.91379,-28.46258 z"
           style="fill:#f2f2f2;fill-opacity:1;stroke:none" />
        <g
           inkscape:transform-center-y="28.328915"
           inkscape:transform-center-x="-35.639602"
           id="g4316">
          <g
             id="g4318"
             transform="translate(-0.26495351,-1.1623916)"
             inkscape:transform-center-x="-31.070422"
             inkscape:transform-center-y="16.449047">
            <path
               sodipodi:nodetypes="cccccccccccccccccc"
               inkscape:connector-curvature="0"
               id="path4320"
               d="m 323.94081,471.40521 c 2.79778,6.14925 6.01886,17.32384 11.75981,23.00879 2.44962,2.3985 -4.24531,3.10356 -9.22388,4.12647 -7.1086,-0.41031 -15.32468,-1.05226 -14.1255,13.45953 l 7.65475,-3.75019 c 6.62414,4.98245 11.99978,1.99512 18.60744,-1.21366 10.9458,5.03546 14.61347,4.96385 21.06278,-0.33525 2.55524,0.70325 7.34173,1.93319 8.88235,5.2991 1.02632,-1.80866 0.34469,-4.2619 -1.00522,-7.12666 6.94574,0.58371 15.47242,3.68851 21.30595,2.04778 6.20796,-1.77053 11.2745,4.25275 19.35288,1.68061 4.77373,-1.36389 5.67068,2.25665 8.49568,3.39827 -1.39061,-6.03747 -5.76643,-9.44287 -10.11176,-9.21102 -5.93421,1.13081 -11.86985,-7.32524 -17.25133,-5.21945 -8.30986,-4.32709 -17.5351,-2.71669 -26.15027,-0.53075 -11.20495,-2.9897 -8.73979,-2.29449 -14.87172,-11.60593 l -8.32974,-18.79909 z"
               style="fill:#ffdd55;stroke:#000000;stroke-width:1px;stroke-linecap:butt;stroke-linejoin:miter;stroke-opacity:1" />
            <path
               id="path4322"
               d="m 322.4375,498.375 c -5.8126,0.0355 -11.06808,1.83417 -10.09375,13.625 L 320,508.25 c 0.15732,0.11833 0.3128,0.20305 0.46875,0.3125 L 326.6875,498.5 c -0.0698,0.0141 -0.14956,0.017 -0.21875,0.0312 -1.33286,-0.0769 -2.68988,-0.16445 -4.03125,-0.15625 z m 38.6875,4.34375 -1.84375,3.96875 0,0.3125 c 0.13414,-0.1075 0.26971,-0.20031 0.40625,-0.3125 2.55524,0.70325 7.33438,1.94659 8.875,5.3125 1.02632,-1.80866 0.34991,-4.26024 -1,-7.125 0.0302,0.003 0.0635,-0.003 0.0937,0 l -0.15625,-0.15625 -6.375,-2 z m 45.75,0.0625 1.15625,5.875 c 0.0637,-0.0193 0.12339,-0.0421 0.1875,-0.0625 4.77373,-1.36389 5.675,2.26463 8.5,3.40625 -1.36052,-5.90685 -5.59252,-9.29207 -9.84375,-9.21875 z"
               style="fill:#4d4d4d;stroke:none"
               inkscape:connector-curvature="0" />
          </g>
          <path
             sodipodi:nodetypes="sssssssss"
             inkscape:connector-curvature="0"
             id="path4324"
             d="m 310.10853,419.68597 4.69762,-2.20305 c 6.50619,-3.05123 27.84617,-1.92947 27.37705,12.17138 -0.26013,7.81906 -0.4934,15.64893 1.51992,24.38453 2.78729,12.09383 4.04586,16.76423 -2.46032,19.81544 l -4.69764,2.20308 c -6.5062,3.05121 -15.98638,-3.53844 -21.25603,-14.77502 l -7.41264,-15.8061 c -5.26965,-11.23658 -4.27415,-22.73903 2.23204,-25.79026 z"
             style="fill:#f2f2f2;fill-opacity:1;stroke:none" />
        </g>
      </g>
      <g
         inkscape:export-ydpi="8.4375"
         inkscape:export-xdpi="8.4375"
         inkscape:export-filename="C:\Dropbox\GameOn\Demos\Art Prep\Pigeon\Walking\BirdWalking48_Strip.png"
         transform="matrix(0.98948451,0.14463887,-0.14463887,0.98948451,50.935738,-126.81966)"
         inkscape:transform-center-y="31.864036"
         inkscape:transform-center-x="152.51371"
         id="g3203">
        <g
           transform="translate(512,33.999998)"
           id="g4306"
           inkscape:export-filename="C:\Dropbox\GameOn\Demos\Art Prep\Pigeon\Walking\BirdWalking32_Strip.png"
           inkscape:export-xdpi="5.625"
           inkscape:export-ydpi="5.625">
          <path
             style="fill:#f2f2f2;stroke:none"
             d="m 361.9375,200.875 c -13.39058,0.14926 -27.55996,1.66752 -42.34375,4.46875 -9.24363,14.21029 -20.13846,27.34784 -32.5625,41.65625 -32.91166,37.90342 -127.40342,91.42729 -186.09375,122.59375 -73.012295,33.39307 -54.857132,30.81506 11.9375,15.46875 61.03329,-14.02262 150.67779,-21.72576 165.3125,-16.53125 14.63472,5.1945 24.14824,13.95117 27.375,17 14.95505,1.09411 17.25382,-3.24809 79.75,-43.8125 43.38379,-28.15914 44.63912,-81.06428 38.75,-129 -17.85011,-8.23997 -38.81742,-12.10354 -62.125,-11.84375 z"
             id="path4308"
             inkscape:connector-curvature="0" />
          <path
             style="fill:#1a1a1a;fill-opacity:1;stroke:none"
             d="m 100.53125,369.78125 c -72.499926,33.18172 -54.316617,30.59671 12.34375,15.28125 0.17487,-0.0402 0.35592,-0.0849 0.53125,-0.125 -3.2798,-5.72454 -7.64873,-10.84922 -12.875,-15.15625 z"
             id="path4310"
             inkscape:connector-curvature="0" />
        </g>
        <g
           transform="translate(512,33.999998)"
           id="g4326"
           inkscape:export-filename="C:\Dropbox\GameOn\Demos\Art Prep\Pigeon\Walking\BirdWalking32_Strip.png"
           inkscape:export-xdpi="5.625"
           inkscape:export-ydpi="5.625">
          <path
             style="fill:#cccccc;stroke:none"
             d="m 311.61638,229.93277 c -41.0394,30.56229 -106.6059,86.45391 -184.3536,99.12698 -37.86738,6.17248 -46.253845,20.0772 -13.56845,20.58662 11.12649,0.17341 10.20801,0.40999 33.6872,0 23.47919,-0.40999 80.6344,3.22241 107.14404,-3.74302 3.18826,-0.83772 6.83487,4.1831 10.47221,4.19042 14.10617,0.0284 29.65937,-3.77726 37.84107,-7.04188 6.04855,-2.41346 2.17361,5.25499 8.26595,4.85627 10.42293,-0.68215 11.61078,-5.3111 21.17813,-6.17548 4.89301,-0.44207 10.27336,-1.03576 16.75397,-1.91174 27.58961,-3.72929 49.02699,-18.64512 59.28719,-33.83508 11.16171,-16.52462 14.99545,-43.00958 2.54068,-65.19963 C 398.41,218.59619 355.34103,197.37075 311.61638,229.93277 z"
             id="path4328"
             inkscape:connector-curvature="0"
             sodipodi:nodetypes="sssssssscssss" />
          <path
             style="fill:#1a1a1a;stroke:none"
             d="m 261.625,267.28125 c -6.06523,4.29348 -12.38498,8.58993 -18.90625,12.84375 2.27791,5.34991 6.89133,10.84114 10.5,14.03125 5.68372,5.02447 13.64874,3.74572 18.90625,6.84375 5.25751,3.09803 6.63352,7.39281 12.40625,10.84375 5.77273,3.45094 16.48126,5.52691 22.34375,8.40625 5.86249,2.87934 7.29761,5.56022 13.03125,8.0625 5.73364,2.50228 14.27109,2.84328 21.4375,5.875 2.74967,1.16324 5.66562,3.32604 8.5625,5.5 5.68947,-0.82192 11.13813,-2.10581 16.25,-3.78125 -3.25453,-3.80857 -8.71955,-7.67937 -13.03125,-10.09375 -6.71276,-3.75888 -17.23945,-2.162 -22.96875,-5.28125 C 324.42695,317.412 324.86495,313.16264 319,309.6875 313.13505,306.21236 300.8434,306.25663 294.78125,302.25 288.7191,298.24337 287.8035,291.81965 283,288.28125 c -4.8035,-3.5384 -11.64723,-2.58197 -16.15625,-6.84375 -3.26337,-3.08444 -3.22556,-9.84832 -5.21875,-14.15625 z"
             id="path4330"
             inkscape:connector-curvature="0" />
          <path
             style="fill:#1a1a1a;stroke:none"
             d="m 225.15625,291.0625 c -4.8499,2.86964 -9.7945,5.67117 -14.84375,8.375 3.43677,2.08758 7.22717,3.4039 9.65625,6 3.90035,4.16854 4.04229,8.40959 8.3125,13.03125 4.2702,4.62166 13.28792,9.27865 17.78125,13.40625 1.27696,1.17303 2.20537,2.23826 3.03125,3.25 -2.95306,-0.0415 -5.67853,0.37084 -8,0.625 -4.11968,0.45103 -5.42433,2.40787 -9.3125,2.46875 -3.88817,0.0609 -7.4466,-1.70332 -13.34375,-3.09375 -5.89715,-1.39043 -18.93108,0.30601 -22.03125,-5.28125 -3.10017,-5.58726 5.8203,-11.2627 4.96875,-14.875 -0.85155,-3.6123 -4.2613,-2.71058 -4.65625,-4.65625 -0.39495,-1.94567 2,-4.9375 2,-4.9375 -22.25314,10.88111 -46.22456,19.57263 -71.46875,23.6875 -37.86738,6.17248 -46.247895,20.08433 -13.5625,20.59375 11.12649,0.17341 10.20831,0.40999 33.6875,0 23.47919,-0.40999 80.64661,3.21543 107.15625,-3.75 3.18826,-0.83772 6.83141,4.18018 10.46875,4.1875 1.06793,0.002 2.13778,-0.0186 3.21875,-0.0625 0.0414,-0.002 0.0836,0.002 0.125,0 0.74822,-0.0315 1.49893,-0.0752 2.25,-0.125 0.90657,-0.0567 1.81263,-0.13724 2.71875,-0.21875 3.92461,-0.35304 7.82242,-0.9113 11.53125,-1.625 -5.22315,-4.44087 -14.09358,-5.81658 -18.15625,-9.875 -4.31472,-4.31017 -2.87257,-8.05126 -7.21875,-12.71875 -4.34617,-4.66751 -15.26788,-7.83152 -19.65625,-13.03125 -4.38839,-5.19973 -3.61389,-11.23823 -7,-15.6875 -1.97412,-2.59396 -4.94015,-3.988 -7.65625,-5.6875 z"
             id="path4332"
             inkscape:connector-curvature="0" />
        </g>
      </g>
    </g>
    <rect
       y="0"
       x="1024"
       height="512"
       width="512"
       id="rect4348"
       style="fill:none;stroke:none"
       inkscape:export-filename="C:\Dropbox\GameOn\Demos\Art Prep\Pigeon\Walking\BirdWalking48_Strip.png"
       inkscape:export-xdpi="8.4375"
       inkscape:export-ydpi="8.4375" />
    <g
       id="g3333"
       transform="matrix(0.66037683,0,0,0.66037683,430.67694,174.47611)">
      <g
         inkscape:export-ydpi="8.4375"
         inkscape:export-xdpi="8.4375"
         inkscape:export-filename="C:\Dropbox\GameOn\Demos\Art Prep\Pigeon\Walking\BirdWalking48_Strip.png"
         transform="translate(1024,0)"
         id="g4370"
         inkscape:transform-center-x="-31.984258"
         inkscape:transform-center-y="33.81193">
        <path
           sodipodi:nodetypes="sssssssss"
           inkscape:connector-curvature="0"
           id="path4372"
           d="m 344.18549,336.13853 7.94133,2.33009 c 10.99873,3.22717 35.31595,27.11256 19.85833,43.46819 -8.57138,9.06934 -17.1221,18.17999 -23.94491,30.74644 -9.44572,17.39741 -12.87575,24.30839 -23.87448,21.08121 l -7.94132,-2.33009 c -10.99873,-3.22717 -15.36632,-21.11758 -9.79281,-40.11303 l 7.84007,-26.72023 c 5.57351,-18.99545 18.91507,-31.68976 29.91379,-28.46258 z"
           style="fill:#cccccc;fill-opacity:1;stroke:none" />
        <g
           inkscape:transform-center-y="28.328915"
           inkscape:transform-center-x="-35.639602"
           id="g4374">
          <g
             id="g4376"
             transform="translate(-0.26495351,-1.1623916)"
             inkscape:transform-center-x="-31.070422"
             inkscape:transform-center-y="16.449047">
            <path
               sodipodi:nodetypes="cccccccccccccccccc"
               inkscape:connector-curvature="0"
               id="path4378"
               d="m 323.94081,471.40521 c 2.79778,6.14925 6.01886,17.32384 11.75981,23.00879 2.44962,2.3985 -4.24531,3.10356 -9.22388,4.12647 -7.1086,-0.41031 -15.32468,-1.05226 -14.1255,13.45953 l 7.65475,-3.75019 c 6.62414,4.98245 11.99978,1.99512 18.60744,-1.21366 10.9458,5.03546 14.61347,4.96385 21.06278,-0.33525 2.55524,0.70325 7.34173,1.93319 8.88235,5.2991 1.02632,-1.80866 0.34469,-4.2619 -1.00522,-7.12666 6.94574,0.58371 15.47242,3.68851 21.30595,2.04778 6.20796,-1.77053 11.2745,4.25275 19.35288,1.68061 4.77373,-1.36389 5.67068,2.25665 8.49568,3.39827 -1.39061,-6.03747 -5.76643,-9.44287 -10.11176,-9.21102 -5.93421,1.13081 -11.86985,-7.32524 -17.25133,-5.21945 -8.30986,-4.32709 -17.5351,-2.71669 -26.15027,-0.53075 -11.20495,-2.9897 -8.73979,-2.29449 -14.87172,-11.60593 l -8.32974,-18.79909 z"
               style="fill:#ffdd55;stroke:#000000;stroke-width:1px;stroke-linecap:butt;stroke-linejoin:miter;stroke-opacity:1" />
            <path
               id="path4380"
               d="m 322.4375,498.375 c -5.8126,0.0355 -11.06808,1.83417 -10.09375,13.625 L 320,508.25 c 0.15732,0.11833 0.3128,0.20305 0.46875,0.3125 L 326.6875,498.5 c -0.0698,0.0141 -0.14956,0.017 -0.21875,0.0312 -1.33286,-0.0769 -2.68988,-0.16445 -4.03125,-0.15625 z m 38.6875,4.34375 -1.84375,3.96875 0,0.3125 c 0.13414,-0.1075 0.26971,-0.20031 0.40625,-0.3125 2.55524,0.70325 7.33438,1.94659 8.875,5.3125 1.02632,-1.80866 0.34991,-4.26024 -1,-7.125 0.0302,0.003 0.0635,-0.003 0.0937,0 l -0.15625,-0.15625 -6.375,-2 z m 45.75,0.0625 1.15625,5.875 c 0.0637,-0.0193 0.12339,-0.0421 0.1875,-0.0625 4.77373,-1.36389 5.675,2.26463 8.5,3.40625 -1.36052,-5.90685 -5.59252,-9.29207 -9.84375,-9.21875 z"
               style="fill:#4d4d4d;stroke:none"
               inkscape:connector-curvature="0" />
          </g>
          <path
             sodipodi:nodetypes="sssssssss"
             inkscape:connector-curvature="0"
             id="path4382"
             d="m 310.10853,419.68597 4.69762,-2.20305 c 6.50619,-3.05123 27.84617,-1.92947 27.37705,12.17138 -0.26013,7.81906 -0.4934,15.64893 1.51992,24.38453 2.78729,12.09383 4.04586,16.76423 -2.46032,19.81544 l -4.69764,2.20308 c -6.5062,3.05121 -15.98638,-3.53844 -21.25603,-14.77502 l -7.41264,-15.8061 c -5.26965,-11.23658 -4.27415,-22.73903 2.23204,-25.79026 z"
             style="fill:#cccccc;fill-opacity:1;stroke:none" />
        </g>
      </g>
      <g
         inkscape:export-ydpi="8.4375"
         inkscape:export-xdpi="8.4375"
         inkscape:export-filename="C:\Dropbox\GameOn\Demos\Art Prep\Pigeon\Walking\BirdWalking48_Strip.png"
         transform="translate(1024,0)"
         inkscape:transform-center-y="33.81193"
         inkscape:transform-center-x="-31.984258"
         id="g4334">
        <path
           style="fill:#f2f2f2;fill-opacity:1;stroke:none"
           d="m 344.18549,336.13853 7.94133,2.33009 c 10.99873,3.22717 35.31595,27.11256 19.85833,43.46819 -8.57138,9.06934 -17.1221,18.17999 -23.94491,30.74644 -9.44572,17.39741 -12.87575,24.30839 -23.87448,21.08121 l -7.94132,-2.33009 c -10.99873,-3.22717 -15.36632,-21.11758 -9.79281,-40.11303 l 7.84007,-26.72023 c 5.57351,-18.99545 18.91507,-31.68976 29.91379,-28.46258 z"
           id="path4336"
           inkscape:connector-curvature="0"
           sodipodi:nodetypes="sssssssss" />
        <g
           id="g4338"
           inkscape:transform-center-x="-35.639602"
           inkscape:transform-center-y="28.328915">
          <g
             inkscape:transform-center-y="16.449047"
             inkscape:transform-center-x="-31.070422"
             transform="translate(-0.26495351,-1.1623916)"
             id="g4340">
            <path
               style="fill:#ffdd55;stroke:#000000;stroke-width:1px;stroke-linecap:butt;stroke-linejoin:miter;stroke-opacity:1"
               d="m 323.94081,471.40521 c 2.79778,6.14925 6.01886,17.32384 11.75981,23.00879 2.44962,2.3985 -4.24531,3.10356 -9.22388,4.12647 -7.1086,-0.41031 -15.32468,-1.05226 -14.1255,13.45953 l 7.65475,-3.75019 c 6.62414,4.98245 11.99978,1.99512 18.60744,-1.21366 10.9458,5.03546 14.61347,4.96385 21.06278,-0.33525 2.55524,0.70325 7.34173,1.93319 8.88235,5.2991 1.02632,-1.80866 0.34469,-4.2619 -1.00522,-7.12666 6.94574,0.58371 15.47242,3.68851 21.30595,2.04778 6.20796,-1.77053 11.2745,4.25275 19.35288,1.68061 4.77373,-1.36389 5.67068,2.25665 8.49568,3.39827 -1.39061,-6.03747 -5.76643,-9.44287 -10.11176,-9.21102 -5.93421,1.13081 -11.86985,-7.32524 -17.25133,-5.21945 -8.30986,-4.32709 -17.5351,-2.71669 -26.15027,-0.53075 -11.20495,-2.9897 -8.73979,-2.29449 -14.87172,-11.60593 l -8.32974,-18.79909 z"
               id="path4342"
               inkscape:connector-curvature="0"
               sodipodi:nodetypes="cccccccccccccccccc" />
            <path
               inkscape:connector-curvature="0"
               style="fill:#4d4d4d;stroke:none"
               d="m 322.4375,498.375 c -5.8126,0.0355 -11.06808,1.83417 -10.09375,13.625 L 320,508.25 c 0.15732,0.11833 0.3128,0.20305 0.46875,0.3125 L 326.6875,498.5 c -0.0698,0.0141 -0.14956,0.017 -0.21875,0.0312 -1.33286,-0.0769 -2.68988,-0.16445 -4.03125,-0.15625 z m 38.6875,4.34375 -1.84375,3.96875 0,0.3125 c 0.13414,-0.1075 0.26971,-0.20031 0.40625,-0.3125 2.55524,0.70325 7.33438,1.94659 8.875,5.3125 1.02632,-1.80866 0.34991,-4.26024 -1,-7.125 0.0302,0.003 0.0635,-0.003 0.0937,0 l -0.15625,-0.15625 -6.375,-2 z m 45.75,0.0625 1.15625,5.875 c 0.0637,-0.0193 0.12339,-0.0421 0.1875,-0.0625 4.77373,-1.36389 5.675,2.26463 8.5,3.40625 -1.36052,-5.90685 -5.59252,-9.29207 -9.84375,-9.21875 z"
               id="path4344" />
          </g>
          <path
             style="fill:#f2f2f2;fill-opacity:1;stroke:none"
             d="m 310.10853,419.68597 4.69762,-2.20305 c 6.50619,-3.05123 27.84617,-1.92947 27.37705,12.17138 -0.26013,7.81906 -0.4934,15.64893 1.51992,24.38453 2.78729,12.09383 4.04586,16.76423 -2.46032,19.81544 l -4.69764,2.20308 c -6.5062,3.05121 -15.98638,-3.53844 -21.25603,-14.77502 l -7.41264,-15.8061 c -5.26965,-11.23658 -4.27415,-22.73903 2.23204,-25.79026 z"
             id="path4346"
             inkscape:connector-curvature="0"
             sodipodi:nodetypes="sssssssss" />
        </g>
      </g>
      <g
         inkscape:export-ydpi="8.4375"
         inkscape:export-xdpi="8.4375"
         inkscape:export-filename="C:\Dropbox\GameOn\Demos\Art Prep\Pigeon\Walking\BirdWalking48_Strip.png"
         id="g4350"
         transform="matrix(0.99280373,0.11975289,-0.11975289,0.99280373,1052.9185,-8.1505184)"
         inkscape:transform-center-y="-76.641417"
         inkscape:transform-center-x="-24.376722">
        <path
           sodipodi:nodetypes="zcczzzz"
           inkscape:connector-curvature="0"
           id="path4352"
           d="m 428.8136,88.370875 c 3.5807,2.985223 10.14008,2.897647 15.89905,1.958579 4.03081,3.323721 11.06021,1.958579 11.06021,1.958579 -0.81982,-4.11735 -3.95723,-12.93284 -11.06021,-16.244685 -7.10298,-3.311845 -11.42316,-6.780419 -15.20779,-5.530105 -3.78463,1.250314 -3.80431,3.203183 -4.26279,6.451789 -0.45848,3.248606 -0.009,8.42062 3.57153,11.405843 z"
           style="fill:#ffff00;stroke:none" />
        <path
           sodipodi:nodetypes="ssccsscsss"
           inkscape:connector-curvature="0"
           id="path4354"
           d="m 400.28125,37.25 c -23.24961,0.76197 -42.89617,35.722288 -49.09375,79.0625 -5.61165,39.24281 -16.35072,65.59805 -31.59375,89.03125 -23.14465,65.75918 125.04973,64.74285 104.46875,7.375 -2.59441,-21.1177 -6.53678,-41.26236 -8.9375,-57.90625 -7.85018,-54.42436 6.73675,-67.452235 14.0625,-65.9375 7.32576,1.514735 4.09375,-13.3125 4.09375,-13.3125 0,0 8.97741,5.27651 11.28125,1.03125 2.30384,-4.24526 -5.19771,-7.8828 -11.28125,-16.75 -11.12995,-16.22271 -22.432,-22.9401 -33,-22.59375 z"
           style="fill:#515947;fill-opacity:1;stroke:none" />
        <path
           transform="translate(-2.8802633,-1.728158)"
           d="m 415.21875,58.012901 c 0,6.20383 -5.0292,11.233028 -11.23303,11.233028 -6.20383,0 -11.23303,-5.029198 -11.23303,-11.233028 0,-6.203829 5.0292,-11.233027 11.23303,-11.233027 6.20383,0 11.23303,5.029198 11.23303,11.233027 z"
           sodipodi:ry="11.233027"
           sodipodi:rx="11.233027"
           sodipodi:cy="58.012901"
           sodipodi:cx="403.98572"
           id="path4356"
           style="fill:#f9f9f9;fill-opacity:1;stroke:none"
           sodipodi:type="arc" />
        <path
           sodipodi:type="arc"
           style="fill:#d40000;fill-opacity:1;stroke:none"
           id="path4358"
           sodipodi:cx="403.98572"
           sodipodi:cy="58.012901"
           sodipodi:rx="11.233027"
           sodipodi:ry="11.233027"
           d="m 415.21875,58.012901 c 0,6.20383 -5.0292,11.233028 -11.23303,11.233028 -6.20383,0 -11.23303,-5.029198 -11.23303,-11.233028 0,-6.203829 5.0292,-11.233027 11.23303,-11.233027 6.20383,0 11.23303,5.029198 11.23303,11.233027 z"
           transform="matrix(0.54871797,0,0,0.54871797,179.43123,23.488921)" />
        <path
           transform="matrix(0.17948722,0,0,0.17948722,329.21266,45.065692)"
           d="m 415.21875,58.012901 c 0,6.20383 -5.0292,11.233028 -11.23303,11.233028 -6.20383,0 -11.23303,-5.029198 -11.23303,-11.233028 0,-6.203829 5.0292,-11.233027 11.23303,-11.233027 6.20383,0 11.23303,5.029198 11.23303,11.233027 z"
           sodipodi:ry="11.233027"
           sodipodi:rx="11.233027"
           sodipodi:cy="58.012901"
           sodipodi:cx="403.98572"
           id="path4360"
           style="fill:#000000;fill-opacity:1;stroke:none"
           sodipodi:type="arc" />
        <path
           id="path4362"
           d="m 433.4375,60.0625 c -3.8804,0.68419 -7.20784,2.651598 -10.28125,5.21875 -2.24179,2.082323 -2.67349,4.33187 -0.40625,6.6875 3.01281,3.19755 5.34077,4.380654 10.78125,5.46875 l 0.0625,0.03125 c -0.16739,-1.117323 -0.3125,-1.90625 -0.3125,-1.90625 0,0 8.97741,5.27651 11.28125,1.03125 2.28418,-4.209036 -5.07019,-7.827775 -11.125,-16.53125 z"
           style="fill:#ececec;stroke:none"
           inkscape:connector-curvature="0" />
      </g>
      <g
         inkscape:export-ydpi="8.4375"
         inkscape:export-xdpi="8.4375"
         inkscape:export-filename="C:\Dropbox\GameOn\Demos\Art Prep\Pigeon\Walking\BirdWalking48_Strip.png"
         id="g4364"
         transform="translate(1024,33.999998)">
        <path
           inkscape:connector-curvature="0"
           id="path4366"
           d="m 361.9375,200.875 c -13.39058,0.14926 -27.55996,1.66752 -42.34375,4.46875 -9.24363,14.21029 -20.13846,27.34784 -32.5625,41.65625 -32.91166,37.90342 -127.40342,91.42729 -186.09375,122.59375 -73.012295,33.39307 -54.857132,30.81506 11.9375,15.46875 61.03329,-14.02262 150.67779,-21.72576 165.3125,-16.53125 14.63472,5.1945 24.14824,13.95117 27.375,17 14.95505,1.09411 17.25382,-3.24809 79.75,-43.8125 43.38379,-28.15914 44.63912,-81.06428 38.75,-129 -17.85011,-8.23997 -38.81742,-12.10354 -62.125,-11.84375 z"
           style="fill:#f2f2f2;stroke:none" />
        <path
           inkscape:connector-curvature="0"
           id="path4368"
           d="m 100.53125,369.78125 c -72.499926,33.18172 -54.316617,30.59671 12.34375,15.28125 0.17487,-0.0402 0.35592,-0.0849 0.53125,-0.125 -3.2798,-5.72454 -7.64873,-10.84922 -12.875,-15.15625 z"
           style="fill:#1a1a1a;fill-opacity:1;stroke:none" />
      </g>
      <g
         inkscape:export-ydpi="8.4375"
         inkscape:export-xdpi="8.4375"
         inkscape:export-filename="C:\Dropbox\GameOn\Demos\Art Prep\Pigeon\Walking\BirdWalking48_Strip.png"
         id="g4384"
         transform="translate(1024,33.999998)">
        <path
           sodipodi:nodetypes="sssssssscssss"
           inkscape:connector-curvature="0"
           id="path4386"
           d="m 311.61638,229.93277 c -41.0394,30.56229 -106.6059,86.45391 -184.3536,99.12698 -37.86738,6.17248 -46.253845,20.0772 -13.56845,20.58662 11.12649,0.17341 10.20801,0.40999 33.6872,0 23.47919,-0.40999 80.6344,3.22241 107.14404,-3.74302 3.18826,-0.83772 6.83487,4.1831 10.47221,4.19042 14.10617,0.0284 29.65937,-3.77726 37.84107,-7.04188 6.04855,-2.41346 2.17361,5.25499 8.26595,4.85627 10.42293,-0.68215 11.61078,-5.3111 21.17813,-6.17548 4.89301,-0.44207 10.27336,-1.03576 16.75397,-1.91174 27.58961,-3.72929 49.02699,-18.64512 59.28719,-33.83508 11.16171,-16.52462 14.99545,-43.00958 2.54068,-65.19963 C 398.41,218.59619 355.34103,197.37075 311.61638,229.93277 z"
           style="fill:#cccccc;stroke:none" />
        <path
           inkscape:connector-curvature="0"
           id="path4388"
           d="m 261.625,267.28125 c -6.06523,4.29348 -12.38498,8.58993 -18.90625,12.84375 2.27791,5.34991 6.89133,10.84114 10.5,14.03125 5.68372,5.02447 13.64874,3.74572 18.90625,6.84375 5.25751,3.09803 6.63352,7.39281 12.40625,10.84375 5.77273,3.45094 16.48126,5.52691 22.34375,8.40625 5.86249,2.87934 7.29761,5.56022 13.03125,8.0625 5.73364,2.50228 14.27109,2.84328 21.4375,5.875 2.74967,1.16324 5.66562,3.32604 8.5625,5.5 5.68947,-0.82192 11.13813,-2.10581 16.25,-3.78125 -3.25453,-3.80857 -8.71955,-7.67937 -13.03125,-10.09375 -6.71276,-3.75888 -17.23945,-2.162 -22.96875,-5.28125 C 324.42695,317.412 324.86495,313.16264 319,309.6875 313.13505,306.21236 300.8434,306.25663 294.78125,302.25 288.7191,298.24337 287.8035,291.81965 283,288.28125 c -4.8035,-3.5384 -11.64723,-2.58197 -16.15625,-6.84375 -3.26337,-3.08444 -3.22556,-9.84832 -5.21875,-14.15625 z"
           style="fill:#1a1a1a;stroke:none" />
        <path
           inkscape:connector-curvature="0"
           id="path4390"
           d="m 225.15625,291.0625 c -4.8499,2.86964 -9.7945,5.67117 -14.84375,8.375 3.43677,2.08758 7.22717,3.4039 9.65625,6 3.90035,4.16854 4.04229,8.40959 8.3125,13.03125 4.2702,4.62166 13.28792,9.27865 17.78125,13.40625 1.27696,1.17303 2.20537,2.23826 3.03125,3.25 -2.95306,-0.0415 -5.67853,0.37084 -8,0.625 -4.11968,0.45103 -5.42433,2.40787 -9.3125,2.46875 -3.88817,0.0609 -7.4466,-1.70332 -13.34375,-3.09375 -5.89715,-1.39043 -18.93108,0.30601 -22.03125,-5.28125 -3.10017,-5.58726 5.8203,-11.2627 4.96875,-14.875 -0.85155,-3.6123 -4.2613,-2.71058 -4.65625,-4.65625 -0.39495,-1.94567 2,-4.9375 2,-4.9375 -22.25314,10.88111 -46.22456,19.57263 -71.46875,23.6875 -37.86738,6.17248 -46.247895,20.08433 -13.5625,20.59375 11.12649,0.17341 10.20831,0.40999 33.6875,0 23.47919,-0.40999 80.64661,3.21543 107.15625,-3.75 3.18826,-0.83772 6.83141,4.18018 10.46875,4.1875 1.06793,0.002 2.13778,-0.0186 3.21875,-0.0625 0.0414,-0.002 0.0836,0.002 0.125,0 0.74822,-0.0315 1.49893,-0.0752 2.25,-0.125 0.90657,-0.0567 1.81263,-0.13724 2.71875,-0.21875 3.92461,-0.35304 7.82242,-0.9113 11.53125,-1.625 -5.22315,-4.44087 -14.09358,-5.81658 -18.15625,-9.875 -4.31472,-4.31017 -2.87257,-8.05126 -7.21875,-12.71875 -4.34617,-4.66751 -15.26788,-7.83152 -19.65625,-13.03125 -4.38839,-5.19973 -3.61389,-11.23823 -7,-15.6875 -1.97412,-2.59396 -4.94015,-3.988 -7.65625,-5.6875 z"
           style="fill:#1a1a1a;stroke:none" />
      </g>
    </g>
    <rect
       inkscape:export-ydpi="8.4375"
       inkscape:export-xdpi="8.4375"
       inkscape:export-filename="C:\Dropbox\GameOn\Demos\Art Prep\Pigeon\Walking\BirdWalking48_Strip.png"
       style="fill:none;stroke:none"
       id="rect3226"
       width="512"
       height="512"
       x="1536"
       y="0" />
    <g
       id="g3421"
       transform="matrix(0.66037683,0,0,0.66037683,610.07444,174.47611)">
      <g
         inkscape:transform-center-y="26.203415"
         inkscape:transform-center-x="-56.488082"
         id="g3242"
         transform="matrix(0.81685761,-0.57683936,0.57683936,0.81685761,1371.3806,260.85319)"
         inkscape:export-filename="C:\Dropbox\GameOn\Demos\Art Prep\Pigeon\Walking\BirdWalking48_Strip.png"
         inkscape:export-xdpi="8.4375"
         inkscape:export-ydpi="8.4375">
        <path
           style="fill:#cccccc;fill-opacity:1;stroke:none"
           d="m 344.18549,336.13853 7.94133,2.33009 c 10.99873,3.22717 35.31595,27.11256 19.85833,43.46819 -8.57138,9.06934 -17.1221,18.17999 -23.94491,30.74644 -9.44572,17.39741 -12.87575,24.30839 -23.87448,21.08121 l -7.94132,-2.33009 c -10.99873,-3.22717 -15.36632,-21.11758 -9.79281,-40.11303 l 7.84007,-26.72023 c 5.57351,-18.99545 18.91507,-31.68976 29.91379,-28.46258 z"
           id="path3244"
           inkscape:connector-curvature="0"
           sodipodi:nodetypes="sssssssss" />
        <g
           id="g3246"
           inkscape:transform-center-x="-35.639602"
           inkscape:transform-center-y="28.328915">
          <g
             inkscape:transform-center-y="16.449047"
             inkscape:transform-center-x="-31.070422"
             transform="translate(-0.26495351,-1.1623916)"
             id="g3248">
            <path
               style="fill:#ffdd55;stroke:#000000;stroke-width:1px;stroke-linecap:butt;stroke-linejoin:miter;stroke-opacity:1"
               d="m 323.94081,471.40521 c 2.79778,6.14925 6.01886,17.32384 11.75981,23.00879 2.44962,2.3985 -4.24531,3.10356 -9.22388,4.12647 -7.1086,-0.41031 -15.32468,-1.05226 -14.1255,13.45953 l 7.65475,-3.75019 c 6.62414,4.98245 11.99978,1.99512 18.60744,-1.21366 10.9458,5.03546 14.61347,4.96385 21.06278,-0.33525 2.55524,0.70325 7.34173,1.93319 8.88235,5.2991 1.02632,-1.80866 0.34469,-4.2619 -1.00522,-7.12666 6.94574,0.58371 15.47242,3.68851 21.30595,2.04778 6.20796,-1.77053 11.2745,4.25275 19.35288,1.68061 4.77373,-1.36389 5.67068,2.25665 8.49568,3.39827 -1.39061,-6.03747 -5.76643,-9.44287 -10.11176,-9.21102 -5.93421,1.13081 -11.86985,-7.32524 -17.25133,-5.21945 -8.30986,-4.32709 -17.5351,-2.71669 -26.15027,-0.53075 -11.20495,-2.9897 -8.73979,-2.29449 -14.87172,-11.60593 l -8.32974,-18.79909 z"
               id="path3250"
               inkscape:connector-curvature="0"
               sodipodi:nodetypes="cccccccccccccccccc" />
            <path
               inkscape:connector-curvature="0"
               style="fill:#4d4d4d;stroke:none"
               d="m 322.4375,498.375 c -5.8126,0.0355 -11.06808,1.83417 -10.09375,13.625 L 320,508.25 c 0.15732,0.11833 0.3128,0.20305 0.46875,0.3125 L 326.6875,498.5 c -0.0698,0.0141 -0.14956,0.017 -0.21875,0.0312 -1.33286,-0.0769 -2.68988,-0.16445 -4.03125,-0.15625 z m 38.6875,4.34375 -1.84375,3.96875 0,0.3125 c 0.13414,-0.1075 0.26971,-0.20031 0.40625,-0.3125 2.55524,0.70325 7.33438,1.94659 8.875,5.3125 1.02632,-1.80866 0.34991,-4.26024 -1,-7.125 0.0302,0.003 0.0635,-0.003 0.0937,0 l -0.15625,-0.15625 -6.375,-2 z m 45.75,0.0625 1.15625,5.875 c 0.0637,-0.0193 0.12339,-0.0421 0.1875,-0.0625 4.77373,-1.36389 5.675,2.26463 8.5,3.40625 -1.36052,-5.90685 -5.59252,-9.29207 -9.84375,-9.21875 z"
               id="path3252" />
          </g>
          <path
             style="fill:#cccccc;fill-opacity:1;stroke:none"
             d="m 310.10853,419.68597 4.69762,-2.20305 c 6.50619,-3.05123 27.84617,-1.92947 27.37705,12.17138 -0.26013,7.81906 -0.4934,15.64893 1.51992,24.38453 2.78729,12.09383 4.04586,16.76423 -2.46032,19.81544 l -4.69764,2.20308 c -6.5062,3.05121 -15.98638,-3.53844 -21.25603,-14.77502 l -7.41264,-15.8061 c -5.26965,-11.23658 -4.27415,-22.73903 2.23204,-25.79026 z"
             id="path3254"
             inkscape:connector-curvature="0"
             sodipodi:nodetypes="sssssssss" />
        </g>
      </g>
      <g
         inkscape:transform-center-x="3.220411"
         inkscape:transform-center-y="-78.459962"
         transform="matrix(0.93932044,-0.34304098,0.34304098,0.93932044,1487.3891,178.84628)"
         id="g3228"
         inkscape:export-filename="C:\Dropbox\GameOn\Demos\Art Prep\Pigeon\Walking\BirdWalking48_Strip.png"
         inkscape:export-xdpi="8.4375"
         inkscape:export-ydpi="8.4375">
        <path
           style="fill:#ffff00;stroke:none"
           d="m 428.8136,88.370875 c 3.5807,2.985223 10.14008,2.897647 15.89905,1.958579 4.03081,3.323721 11.06021,1.958579 11.06021,1.958579 -0.81982,-4.11735 -3.95723,-12.93284 -11.06021,-16.244685 -7.10298,-3.311845 -11.42316,-6.780419 -15.20779,-5.530105 -3.78463,1.250314 -3.80431,3.203183 -4.26279,6.451789 -0.45848,3.248606 -0.009,8.42062 3.57153,11.405843 z"
           id="path3230"
           inkscape:connector-curvature="0"
           sodipodi:nodetypes="zcczzzz" />
        <path
           style="fill:#515947;fill-opacity:1;stroke:none"
           d="m 400.28125,37.25 c -23.24961,0.76197 -42.89617,35.722288 -49.09375,79.0625 -5.61165,39.24281 -16.35072,65.59805 -31.59375,89.03125 -23.14465,65.75918 125.04973,64.74285 104.46875,7.375 -2.59441,-21.1177 -6.53678,-41.26236 -8.9375,-57.90625 -7.85018,-54.42436 6.73675,-67.452235 14.0625,-65.9375 7.32576,1.514735 4.09375,-13.3125 4.09375,-13.3125 0,0 8.97741,5.27651 11.28125,1.03125 2.30384,-4.24526 -5.19771,-7.8828 -11.28125,-16.75 -11.12995,-16.22271 -22.432,-22.9401 -33,-22.59375 z"
           id="path3232"
           inkscape:connector-curvature="0"
           sodipodi:nodetypes="ssccsscsss" />
        <path
           sodipodi:type="arc"
           style="fill:#f9f9f9;fill-opacity:1;stroke:none"
           id="path3234"
           sodipodi:cx="403.98572"
           sodipodi:cy="58.012901"
           sodipodi:rx="11.233027"
           sodipodi:ry="11.233027"
           d="m 415.21875,58.012901 c 0,6.20383 -5.0292,11.233028 -11.23303,11.233028 -6.20383,0 -11.23303,-5.029198 -11.23303,-11.233028 0,-6.203829 5.0292,-11.233027 11.23303,-11.233027 6.20383,0 11.23303,5.029198 11.23303,11.233027 z"
           transform="translate(-2.8802633,-1.728158)" />
        <path
           transform="matrix(0.54871797,0,0,0.54871797,179.43123,23.488921)"
           d="m 415.21875,58.012901 c 0,6.20383 -5.0292,11.233028 -11.23303,11.233028 -6.20383,0 -11.23303,-5.029198 -11.23303,-11.233028 0,-6.203829 5.0292,-11.233027 11.23303,-11.233027 6.20383,0 11.23303,5.029198 11.23303,11.233027 z"
           sodipodi:ry="11.233027"
           sodipodi:rx="11.233027"
           sodipodi:cy="58.012901"
           sodipodi:cx="403.98572"
           id="path3236"
           style="fill:#d40000;fill-opacity:1;stroke:none"
           sodipodi:type="arc" />
        <path
           sodipodi:type="arc"
           style="fill:#000000;fill-opacity:1;stroke:none"
           id="path3238"
           sodipodi:cx="403.98572"
           sodipodi:cy="58.012901"
           sodipodi:rx="11.233027"
           sodipodi:ry="11.233027"
           d="m 415.21875,58.012901 c 0,6.20383 -5.0292,11.233028 -11.23303,11.233028 -6.20383,0 -11.23303,-5.029198 -11.23303,-11.233028 0,-6.203829 5.0292,-11.233027 11.23303,-11.233027 6.20383,0 11.23303,5.029198 11.23303,11.233027 z"
           transform="matrix(0.17948722,0,0,0.17948722,329.21266,45.065692)" />
        <path
           inkscape:connector-curvature="0"
           style="fill:#ececec;stroke:none"
           d="m 433.4375,60.0625 c -3.8804,0.68419 -7.20784,2.651598 -10.28125,5.21875 -2.24179,2.082323 -2.67349,4.33187 -0.40625,6.6875 3.01281,3.19755 5.34077,4.380654 10.78125,5.46875 l 0.0625,0.03125 c -0.16739,-1.117323 -0.3125,-1.90625 -0.3125,-1.90625 0,0 8.97741,5.27651 11.28125,1.03125 2.28418,-4.209036 -5.07019,-7.827775 -11.125,-16.53125 z"
           id="path3240" />
      </g>
      <g
         id="g3212"
         inkscape:transform-center-x="10.616282"
         inkscape:transform-center-y="30.794237"
         transform="matrix(0.74712587,0.66468258,-0.66468258,0.74712587,1868.303,-108.59792)"
         inkscape:export-filename="C:\Dropbox\GameOn\Demos\Art Prep\Pigeon\Walking\BirdWalking48_Strip.png"
         inkscape:export-xdpi="8.4375"
         inkscape:export-ydpi="8.4375">
        <path
           sodipodi:nodetypes="sssssssss"
           inkscape:connector-curvature="0"
           id="path3214"
           d="m 315.91434,343.62404 8.27239,0.24819 c 11.45725,0.34374 41.02005,17.31075 30.19599,37.04104 -6.00203,10.94062 -11.97364,21.91598 -15.40031,35.7985 -4.74399,19.21942 -6.31675,26.77278 -17.774,26.42902 l -8.27238,-0.24819 c -11.45725,-0.34375 -20.20301,-16.55036 -19.60935,-36.33769 l 0.8351,-27.83416 c 0.59367,-19.78733 10.29532,-35.44047 21.75256,-35.09671 z"
           style="fill:#f2f2f2;fill-opacity:1;stroke:none" />
        <g
           inkscape:transform-center-y="27.654647"
           inkscape:transform-center-x="-46.283918"
           id="g3216"
           transform="matrix(0.91354473,-0.40673828,0.40673828,0.91354473,-148.98387,169.8635)">
          <g
             id="g3218"
             transform="matrix(0.94428596,-0.32912615,0.32912615,0.94428596,-135.19702,135.91778)"
             inkscape:transform-center-x="-33.927523"
             inkscape:transform-center-y="10.913045">
            <path
               sodipodi:nodetypes="cccccccccccccccccc"
               inkscape:connector-curvature="0"
               id="path3220"
               d="m 323.94081,471.40521 c 2.79778,6.14925 6.01886,17.32384 11.75981,23.00879 2.44962,2.3985 -4.24531,3.10356 -9.22388,4.12647 -7.1086,-0.41031 -15.32468,-1.05226 -14.1255,13.45953 l 7.65475,-3.75019 c 6.62414,4.98245 11.99978,1.99512 18.60744,-1.21366 10.9458,5.03546 14.61347,4.96385 21.06278,-0.33525 2.55524,0.70325 7.34173,1.93319 8.88235,5.2991 1.02632,-1.80866 0.34469,-4.2619 -1.00522,-7.12666 6.94574,0.58371 15.47242,3.68851 21.30595,2.04778 6.20796,-1.77053 11.2745,4.25275 19.35288,1.68061 4.77373,-1.36389 5.67068,2.25665 8.49568,3.39827 -1.39061,-6.03747 -5.76643,-9.44287 -10.11176,-9.21102 -5.93421,1.13081 -11.86985,-7.32524 -17.25133,-5.21945 -8.30986,-4.32709 -17.5351,-2.71669 -26.15027,-0.53075 -11.20495,-2.9897 -8.73979,-2.29449 -14.87172,-11.60593 l -8.32974,-18.79909 z"
               style="fill:#ffdd55;stroke:#000000;stroke-width:1px;stroke-linecap:butt;stroke-linejoin:miter;stroke-opacity:1" />
            <path
               id="path3222"
               d="m 322.4375,498.375 c -5.8126,0.0355 -11.06808,1.83417 -10.09375,13.625 L 320,508.25 c 0.15732,0.11833 0.3128,0.20305 0.46875,0.3125 L 326.6875,498.5 c -0.0698,0.0141 -0.14956,0.017 -0.21875,0.0312 -1.33286,-0.0769 -2.68988,-0.16445 -4.03125,-0.15625 z m 38.6875,4.34375 -1.84375,3.96875 0,0.3125 c 0.13414,-0.1075 0.26971,-0.20031 0.40625,-0.3125 2.55524,0.70325 7.33438,1.94659 8.875,5.3125 1.02632,-1.80866 0.34991,-4.26024 -1,-7.125 0.0302,0.003 0.0635,-0.003 0.0937,0 l -0.15625,-0.15625 -6.375,-2 z m 45.75,0.0625 1.15625,5.875 c 0.0637,-0.0193 0.12339,-0.0421 0.1875,-0.0625 4.77373,-1.36389 5.675,2.26463 8.5,3.40625 -1.36052,-5.90685 -5.59252,-9.29207 -9.84375,-9.21875 z"
               style="fill:#4d4d4d;stroke:none"
               inkscape:connector-curvature="0" />
          </g>
          <path
             sodipodi:nodetypes="sssssssss"
             inkscape:connector-curvature="0"
             id="path3224"
             d="m 310.10853,419.68597 4.69762,-2.20305 c 6.50619,-3.05123 27.84617,-1.92947 27.37705,12.17138 -0.26013,7.81906 -0.4934,15.64893 1.51992,24.38453 2.78729,12.09383 4.04586,16.76423 -2.46032,19.81544 l -4.69764,2.20308 c -6.5062,3.05121 -15.98638,-3.53844 -21.25603,-14.77502 l -7.41264,-15.8061 c -5.26965,-11.23658 -4.27415,-22.73903 2.23204,-25.79026 z"
             style="fill:#f2f2f2;fill-opacity:1;stroke:none" />
        </g>
      </g>
      <g
         inkscape:export-ydpi="8.4375"
         inkscape:export-xdpi="8.4375"
         inkscape:export-filename="C:\Dropbox\GameOn\Demos\Art Prep\Pigeon\Walking\BirdWalking48_Strip.png"
         id="g3256"
         inkscape:transform-center-x="152.51371"
         inkscape:transform-center-y="31.864036"
         transform="matrix(0.98948451,0.14463887,-0.14463887,0.98948451,1074.9357,-126.81966)">
        <g
           inkscape:export-ydpi="5.625"
           inkscape:export-xdpi="5.625"
           inkscape:export-filename="C:\Dropbox\GameOn\Demos\Art Prep\Pigeon\Walking\BirdWalking32_Strip.png"
           id="g3258"
           transform="translate(512,33.999998)">
          <path
             inkscape:connector-curvature="0"
             id="path3260"
             d="m 361.9375,200.875 c -13.39058,0.14926 -27.55996,1.66752 -42.34375,4.46875 -9.24363,14.21029 -20.13846,27.34784 -32.5625,41.65625 -32.91166,37.90342 -127.40342,91.42729 -186.09375,122.59375 -73.012295,33.39307 -54.857132,30.81506 11.9375,15.46875 61.03329,-14.02262 150.67779,-21.72576 165.3125,-16.53125 14.63472,5.1945 24.14824,13.95117 27.375,17 14.95505,1.09411 17.25382,-3.24809 79.75,-43.8125 43.38379,-28.15914 44.63912,-81.06428 38.75,-129 -17.85011,-8.23997 -38.81742,-12.10354 -62.125,-11.84375 z"
             style="fill:#f2f2f2;stroke:none" />
          <path
             inkscape:connector-curvature="0"
             id="path3262"
             d="m 100.53125,369.78125 c -72.499926,33.18172 -54.316617,30.59671 12.34375,15.28125 0.17487,-0.0402 0.35592,-0.0849 0.53125,-0.125 -3.2798,-5.72454 -7.64873,-10.84922 -12.875,-15.15625 z"
             style="fill:#1a1a1a;fill-opacity:1;stroke:none" />
        </g>
        <g
           inkscape:export-ydpi="5.625"
           inkscape:export-xdpi="5.625"
           inkscape:export-filename="C:\Dropbox\GameOn\Demos\Art Prep\Pigeon\Walking\BirdWalking32_Strip.png"
           id="g3264"
           transform="translate(512,33.999998)">
          <path
             sodipodi:nodetypes="sssssssscssss"
             inkscape:connector-curvature="0"
             id="path3266"
             d="m 311.61638,229.93277 c -41.0394,30.56229 -106.6059,86.45391 -184.3536,99.12698 -37.86738,6.17248 -46.253845,20.0772 -13.56845,20.58662 11.12649,0.17341 10.20801,0.40999 33.6872,0 23.47919,-0.40999 80.6344,3.22241 107.14404,-3.74302 3.18826,-0.83772 6.83487,4.1831 10.47221,4.19042 14.10617,0.0284 29.65937,-3.77726 37.84107,-7.04188 6.04855,-2.41346 2.17361,5.25499 8.26595,4.85627 10.42293,-0.68215 11.61078,-5.3111 21.17813,-6.17548 4.89301,-0.44207 10.27336,-1.03576 16.75397,-1.91174 27.58961,-3.72929 49.02699,-18.64512 59.28719,-33.83508 11.16171,-16.52462 14.99545,-43.00958 2.54068,-65.19963 C 398.41,218.59619 355.34103,197.37075 311.61638,229.93277 z"
             style="fill:#cccccc;stroke:none" />
          <path
             inkscape:connector-curvature="0"
             id="path3268"
             d="m 261.625,267.28125 c -6.06523,4.29348 -12.38498,8.58993 -18.90625,12.84375 2.27791,5.34991 6.89133,10.84114 10.5,14.03125 5.68372,5.02447 13.64874,3.74572 18.90625,6.84375 5.25751,3.09803 6.63352,7.39281 12.40625,10.84375 5.77273,3.45094 16.48126,5.52691 22.34375,8.40625 5.86249,2.87934 7.29761,5.56022 13.03125,8.0625 5.73364,2.50228 14.27109,2.84328 21.4375,5.875 2.74967,1.16324 5.66562,3.32604 8.5625,5.5 5.68947,-0.82192 11.13813,-2.10581 16.25,-3.78125 -3.25453,-3.80857 -8.71955,-7.67937 -13.03125,-10.09375 -6.71276,-3.75888 -17.23945,-2.162 -22.96875,-5.28125 C 324.42695,317.412 324.86495,313.16264 319,309.6875 313.13505,306.21236 300.8434,306.25663 294.78125,302.25 288.7191,298.24337 287.8035,291.81965 283,288.28125 c -4.8035,-3.5384 -11.64723,-2.58197 -16.15625,-6.84375 -3.26337,-3.08444 -3.22556,-9.84832 -5.21875,-14.15625 z"
             style="fill:#1a1a1a;stroke:none" />
          <path
             inkscape:connector-curvature="0"
             id="path3270"
             d="m 225.15625,291.0625 c -4.8499,2.86964 -9.7945,5.67117 -14.84375,8.375 3.43677,2.08758 7.22717,3.4039 9.65625,6 3.90035,4.16854 4.04229,8.40959 8.3125,13.03125 4.2702,4.62166 13.28792,9.27865 17.78125,13.40625 1.27696,1.17303 2.20537,2.23826 3.03125,3.25 -2.95306,-0.0415 -5.67853,0.37084 -8,0.625 -4.11968,0.45103 -5.42433,2.40787 -9.3125,2.46875 -3.88817,0.0609 -7.4466,-1.70332 -13.34375,-3.09375 -5.89715,-1.39043 -18.93108,0.30601 -22.03125,-5.28125 -3.10017,-5.58726 5.8203,-11.2627 4.96875,-14.875 -0.85155,-3.6123 -4.2613,-2.71058 -4.65625,-4.65625 -0.39495,-1.94567 2,-4.9375 2,-4.9375 -22.25314,10.88111 -46.22456,19.57263 -71.46875,23.6875 -37.86738,6.17248 -46.247895,20.08433 -13.5625,20.59375 11.12649,0.17341 10.20831,0.40999 33.6875,0 23.47919,-0.40999 80.64661,3.21543 107.15625,-3.75 3.18826,-0.83772 6.83141,4.18018 10.46875,4.1875 1.06793,0.002 2.13778,-0.0186 3.21875,-0.0625 0.0414,-0.002 0.0836,0.002 0.125,0 0.74822,-0.0315 1.49893,-0.0752 2.25,-0.125 0.90657,-0.0567 1.81263,-0.13724 2.71875,-0.21875 3.92461,-0.35304 7.82242,-0.9113 11.53125,-1.625 -5.22315,-4.44087 -14.09358,-5.81658 -18.15625,-9.875 -4.31472,-4.31017 -2.87257,-8.05126 -7.21875,-12.71875 -4.34617,-4.66751 -15.26788,-7.83152 -19.65625,-13.03125 -4.38839,-5.19973 -3.61389,-11.23823 -7,-15.6875 -1.97412,-2.59396 -4.94015,-3.988 -7.65625,-5.6875 z"
             style="fill:#1a1a1a;stroke:none" />
        </g>
      </g>
    </g>
  </g>
</svg>
